<svg width="90" height="110" viewBox="0 0 90 110" fill="none" xmlns="http://www.w3.org/2000/svg">
<rect width="90" height="110" fill="#F5F5F5"/>
<path d="M17.4111 42.1545C19.3502 42.1545 20.9222 40.5753 20.9222 38.6272C20.9222 36.6792 19.3502 35.1 17.4111 35.1C15.472 35.1 13.9 36.6792 13.9 38.6272C13.9 40.5753 15.472 42.1545 17.4111 42.1545Z" fill="#FED4A0" stroke="#35373B" stroke-width="2"/>
<path d="M33.2111 42.1545C35.1503 42.1545 36.7222 40.5753 36.7222 38.6272C36.7222 36.6792 35.1503 35.1 33.2111 35.1C31.272 35.1 29.7 36.6792 29.7 38.6272C29.7 40.5753 31.272 42.1545 33.2111 42.1545Z" fill="#FED4A0" stroke="#35373B" stroke-width="2"/>
<path d="M49.0111 42.1545C50.9502 42.1545 52.5222 40.5753 52.5222 38.6272C52.5222 36.6792 50.9502 35.1 49.0111 35.1C47.072 35.1 45.5 36.6792 45.5 38.6272C45.5 40.5753 47.072 42.1545 49.0111 42.1545Z" fill="#FED4A0" stroke="#35373B" stroke-width="2"/>
<path d="M16.5333 9.64545H49.8889C53.6953 9.64545 56.7889 12.7466 56.7889 16.5818V78.3091C56.7889 82.1443 53.6953 85.2454 49.8889 85.2454H16.5333C12.7269 85.2454 9.63333 82.1443 9.63333 78.3091V16.5818C9.63333 12.7466 12.7269 9.64545 16.5333 9.64545Z" stroke="#35373B" stroke-width="2"/>
<path d="M46.3778 13.9363H20.0444C16.651 13.9363 13.9 16.7 13.9 20.1091V23.6363C13.9 27.0454 16.651 29.8091 20.0444 29.8091H46.3778C49.7713 29.8091 52.5222 27.0454 52.5222 23.6363V20.1091C52.5222 16.7 49.7713 13.9363 46.3778 13.9363Z" stroke="#35373B" stroke-width="2"/>
<path d="M27.1937 20.754C26.863 20.3978 26.3076 20.3783 25.9531 20.7105C25.5985 21.0426 25.5791 21.6006 25.9097 21.9568L33.0935 29.6959C33.4241 30.052 33.9795 30.0715 34.3341 29.7394C34.6886 29.4072 34.708 28.8492 34.3774 28.4931L27.1937 20.754Z" fill="#35373B"/>
<path d="M33.2111 72.1363C39.9981 72.1363 45.5 66.6091 45.5 59.7909C45.5 52.9727 39.9981 47.4454 33.2111 47.4454C26.4241 47.4454 20.9222 52.9727 20.9222 59.7909C20.9222 66.6091 26.4241 72.1363 33.2111 72.1363Z" stroke="#35373B" stroke-width="2"/>
<path d="M42.2825 53.9391C43.3109 52.906 43.3109 51.231 42.2825 50.1979C41.2541 49.1648 39.5868 49.1648 38.5584 50.1979L23.662 65.1628C22.6337 66.196 22.6337 67.871 23.662 68.9041C24.6904 69.9372 26.3578 69.9372 27.3861 68.9041L42.2825 53.9391Z" fill="#35373B"/>
<path d="M26.1889 81.8364C27.6432 81.8364 28.8222 80.652 28.8222 79.1909C28.8222 77.7299 27.6432 76.5455 26.1889 76.5455C24.7345 76.5455 23.5555 77.7299 23.5555 79.1909C23.5555 80.652 24.7345 81.8364 26.1889 81.8364Z" fill="#35373B"/>
<path d="M41.9889 81.8364C43.4432 81.8364 44.6222 80.652 44.6222 79.1909C44.6222 77.7299 43.4432 76.5455 41.9889 76.5455C40.5345 76.5455 39.3556 77.7299 39.3556 79.1909C39.3556 80.652 40.5345 81.8364 41.9889 81.8364Z" fill="#35373B"/>
<path d="M69.2 36.8637C69.2 35.4026 68.021 34.2182 66.5667 34.2182C65.1123 34.2182 63.9333 35.4026 63.9333 36.8637V56.2637C63.9333 57.7247 65.1123 58.9091 66.5667 58.9091C68.021 58.9091 69.2 57.7247 69.2 56.2637V36.8637Z" fill="#35373B"/>
<path d="M83.2445 36.8637C83.2445 35.4026 82.0655 34.2182 80.6111 34.2182C79.1568 34.2182 77.9778 35.4026 77.9778 36.8637V56.2637C77.9778 57.7247 79.1568 58.9091 80.6111 58.9091C82.0655 58.9091 83.2445 57.7247 83.2445 56.2637V36.8637Z" fill="#35373B"/>
<path d="M66.5667 35.1V28.0455" stroke="#35373B" stroke-width="2" stroke-linecap="round"/>
<path d="M81.4889 27.8691C81.4889 27.3821 81.0958 26.9872 80.6111 26.9872C80.1264 26.9872 79.7333 27.3821 79.7333 27.8691H81.4889ZM81.4889 35.9818V27.8691H79.7333V35.9818H81.4889Z" fill="#35373B"/>
<path d="M67.4445 52.7364C67.4445 52.2494 67.0515 51.8546 66.5667 51.8546C66.0819 51.8546 65.6889 52.2494 65.6889 52.7364V54.5C65.6889 54.987 66.0819 55.3818 66.5667 55.3818C67.0515 55.3818 67.4445 54.987 67.4445 54.5V52.7364Z" fill="#FED4A0"/>
<path d="M81.4889 52.7364C81.4889 52.2494 81.0959 51.8546 80.6111 51.8546C80.1263 51.8546 79.7333 52.2494 79.7333 52.7364V54.5C79.7333 54.987 80.1263 55.3818 80.6111 55.3818C81.0959 55.3818 81.4889 54.987 81.4889 54.5V52.7364Z" fill="#FED4A0"/>
<path fill-rule="evenodd" clip-rule="evenodd" d="M72.6442 17.1757C72.662 17.0839 72.6956 16.9977 72.742 16.92C72.8044 16.8148 72.8885 16.7281 72.9861 16.6632C73.1592 16.5483 73.3746 16.5021 73.5861 16.5446C73.641 16.5555 73.6939 16.572 73.7442 16.5936L80.2477 19.2069C80.6577 19.3717 80.8565 19.8376 80.6917 20.2475C80.527 20.6575 80.0611 20.8563 79.6511 20.6916L74.2295 18.5129V22.9729C74.2295 23.0155 74.2261 23.0573 74.2197 23.0981C74.2645 23.2615 74.2578 23.4404 74.1892 23.6096C74.023 24.019 73.5564 24.2161 73.147 24.05L65.3339 20.8788C64.9245 20.7126 64.7274 20.246 64.8935 19.8366C65.0597 19.4272 65.5263 19.2301 65.9357 19.3962L72.6295 22.1131V17.3475C72.6281 17.2905 72.6329 17.233 72.6442 17.1757Z" fill="#35373B"/>
<path d="M27.0667 79.1909C27.0667 78.7039 26.6737 78.3091 26.1889 78.3091C25.7041 78.3091 25.3111 78.7039 25.3111 79.1909V98.5909C25.3111 99.0779 25.7041 99.4727 26.1889 99.4727C26.6737 99.4727 27.0667 99.0779 27.0667 98.5909V79.1909Z" fill="#35373B"/>
<path d="M80.6111 97.7091H26.1889C25.7041 97.7091 25.3111 98.1039 25.3111 98.5909C25.3111 99.0779 25.7041 99.4727 26.1889 99.4727H80.6111C81.0959 99.4727 81.4889 99.0779 81.4889 98.5909C81.4889 98.1039 81.0959 97.7091 80.6111 97.7091Z" fill="#35373B"/>
<path d="M42.8667 80.9546C42.8667 80.4676 42.4737 80.0728 41.9889 80.0728C41.5041 80.0728 41.1111 80.4676 41.1111 80.9546V91.5364C41.1111 92.0234 41.5041 92.4182 41.9889 92.4182C42.4737 92.4182 42.8667 92.0234 42.8667 91.5364V80.9546Z" fill="#35373B"/>
<path d="M81.4889 58.0273C81.4889 57.5403 81.0959 57.1454 80.6111 57.1454C80.1263 57.1454 79.7333 57.5403 79.7333 58.0273V98.5909C79.7333 99.0779 80.1263 99.4727 80.6111 99.4727C81.0959 99.4727 81.4889 99.0779 81.4889 98.5909V58.0273Z" fill="#35373B"/>
<path d="M66.5667 90.6545H41.9889C41.5041 90.6545 41.1111 91.0493 41.1111 91.5364C41.1111 92.0234 41.5041 92.4182 41.9889 92.4182H66.5667C67.0515 92.4182 67.4444 92.0234 67.4444 91.5364C67.4444 91.0493 67.0515 90.6545 66.5667 90.6545Z" fill="#35373B"/>
<path d="M67.4445 58.0273C67.4445 57.5403 67.0515 57.1454 66.5667 57.1454C66.0819 57.1454 65.6889 57.5403 65.6889 58.0273V91.5364C65.6889 92.0234 66.0819 92.4182 66.5667 92.4182C67.0515 92.4182 67.4445 92.0234 67.4445 91.5364V58.0273Z" fill="#35373B"/>
</svg>
