<svg width="90" height="110" viewBox="0 0 90 110" fill="none" xmlns="http://www.w3.org/2000/svg">
<rect width="90" height="110" fill="#F5F5F5"/>
<path fill-rule="evenodd" clip-rule="evenodd" d="M61.3688 90C61.7789 87.6219 62 85.1073 62 82.5C62 74.6699 60.0057 67.6759 56.8871 62.7029C53.7513 57.7027 49.6735 55 45.5 55C41.3265 55 37.2487 57.7027 34.1129 62.7029C30.9943 67.6759 29 74.6699 29 82.5C29 85.1073 29.2211 87.6219 29.6312 90H27.6032C27.2096 87.6052 27 85.0916 27 82.5C27 66.2076 35.2827 53 45.5 53C55.7173 53 64 66.2076 64 82.5C64 85.0916 63.7904 87.6052 63.3968 90H61.3688Z" fill="#35373B"/>
<path d="M25.5 94C25.5 92.067 27.067 90.5 29 90.5H63C64.933 90.5 66.5 92.067 66.5 94C66.5 94.8284 65.8284 95.5 65 95.5H27C26.1716 95.5 25.5 94.8284 25.5 94Z" stroke="#35373B"/>
<path d="M19.5 101C19.5 101.828 20.1716 102.5 21 102.5H70C70.8284 102.5 71.5 101.828 71.5 101C71.5 97.9624 69.0376 95.5 66 95.5H25C21.9624 95.5 19.5 97.9624 19.5 101Z" stroke="#35373B"/>
<path d="M44.304 76.696L43.872 65.2H46.584L46.128 76.696H44.304ZM45.24 82.144C44.792 82.144 44.416 81.992 44.112 81.688C43.808 81.384 43.656 81.024 43.656 80.608C43.656 80.16 43.808 79.792 44.112 79.504C44.416 79.216 44.792 79.072 45.24 79.072C45.688 79.072 46.056 79.216 46.344 79.504C46.632 79.792 46.776 80.16 46.776 80.608C46.776 81.024 46.632 81.384 46.344 81.688C46.056 81.992 45.688 82.144 45.24 82.144Z" fill="#35373B"/>
<path d="M18.1716 53.1716L23.8285 58.8284" stroke="#FED4A0" stroke-width="2" stroke-linecap="round"/>
<path d="M69 78H77" stroke="#FED4A0" stroke-width="2" stroke-linecap="round"/>
<path d="M46 48V40" stroke="#FED4A0" stroke-width="2" stroke-linecap="round"/>
<path d="M67.1716 58.8284L72.8285 53.1716" stroke="#FED4A0" stroke-width="2" stroke-linecap="round"/>
<path d="M14 78H22" stroke="#FED4A0" stroke-width="2" stroke-linecap="round"/>
<path fill-rule="evenodd" clip-rule="evenodd" d="M64 26.4403L46.856 12.5728L46.3967 12L46.2718 12.1002L46.1512 12.0027L45.7041 12.5554L2.12331 47.5024C0.810345 48.5552 0.620168 50.4819 1.70196 51.7712L3.60417 54.0381C4.66756 55.3054 6.55615 55.4727 7.82573 54.412L46.0233 22.5001L83.1634 53.477C84.4332 54.536 86.3203 54.3681 87.3831 53.1016L89.2919 50.8267C90.3705 49.5413 90.1851 47.6212 88.8805 46.5659L78 37.7648V22C78 20.3431 76.6569 19 75 19H67C65.3431 19 64 20.3431 64 22V26.4403ZM66 28.0581L76 36.147V22C76 21.4477 75.5523 21 75 21H67C66.4477 21 66 21.4477 66 22V28.0581ZM76 38.7194L46.2663 14.6682L3.3745 49.0627C2.93684 49.4136 2.87345 50.0559 3.23405 50.4856L5.13626 52.7526C5.49072 53.175 6.12025 53.2308 6.54344 52.8772L45.8812 20.0127L46.0219 20.1812L46.1628 20.0122L84.4445 51.9411C84.8677 52.2941 85.4968 52.2382 85.851 51.816L87.7599 49.5411C88.1194 49.1127 88.0576 48.4726 87.6227 48.1209L76.3469 39H76V38.7194Z" fill="#35373B"/>
</svg>
