<svg width="90" height="110" viewBox="0 0 90 110" fill="none" xmlns="http://www.w3.org/2000/svg">
<rect width="90" height="110" fill="#F5F5F5"/>
<path d="M34.9147 75.1647V82.2353H31.4412V72.5837L42.7182 67.791L44.3906 67.5913C45.7572 67.602 46.9271 68.3769 47.7263 69.6113C47.7266 69.6118 47.727 69.6123 47.7273 69.6128L49.9945 73.1718C51.8174 76.4053 55.3493 78.6159 59.5588 78.7786V82.2275C54.9791 82.0846 50.8212 79.9891 48.1015 76.8491L47.4308 76.0748L47.2329 77.0799L45.9094 83.8034L45.8565 84.0724L46.0547 84.2616L50.5853 88.5874V104.735H47.1118V91.7353V91.5205L46.956 91.3727L42.2443 86.8992L41.6061 86.2933L41.4123 87.1516L39.2961 96.5233L24.5679 93.5926L25.2712 90.0759L35.7644 92.2251L36.258 92.3262L36.3553 91.8318L39.9288 73.673L40.1054 72.7756L39.2547 73.1114L35.2311 74.6996L34.9147 74.8245V75.1647ZM23.5 47.5H67.5V104.735H63.2059V52.2941V51.7941H62.7059H28.2941H27.7941V52.2941V86.3812L23.5 85.4794V47.5ZM47.7235 65.4794C45.5417 65.4794 43.75 63.6689 43.75 61.4794C43.75 60.4256 44.1686 59.4149 44.9138 58.6697C45.659 57.9245 46.6697 57.5059 47.7235 57.5059C49.9375 57.5059 51.7235 59.2957 51.7235 61.4794C51.7235 63.6669 49.9337 65.4794 47.7235 65.4794Z" stroke="#35373B"/>
<path fill-rule="evenodd" clip-rule="evenodd" d="M64 26.4403L46.8561 12.5728L46.3967 12L46.2718 12.1002L46.1512 12.0027L45.7042 12.5554L2.12336 47.5024C0.810391 48.5552 0.620214 50.4819 1.70201 51.7712L3.60422 54.0381C4.6676 55.3054 6.5562 55.4727 7.82577 54.412L46.0233 22.5001L83.1635 53.477C84.4332 54.536 86.3204 54.3681 87.3832 53.1016L89.292 50.8267C90.3706 49.5413 90.1852 47.6212 88.8806 46.5659L78 37.7648V22C78 20.3431 76.6569 19 75 19H67C65.3432 19 64 20.3431 64 22V26.4403ZM66 28.0581L76 36.147V22C76 21.4477 75.5523 21 75 21H67C66.4478 21 66 21.4477 66 22V28.0581ZM76 38.7194L46.2664 14.6682L3.37455 49.0627C2.93689 49.4136 2.8735 50.0559 3.2341 50.4856L5.1363 52.7526C5.49077 53.175 6.1203 53.2308 6.54349 52.8772L45.8812 20.0127L46.0219 20.1812L46.1628 20.0122L84.4445 51.9411C84.8678 52.2941 85.4968 52.2382 85.8511 51.816L87.7599 49.5411C88.1194 49.1127 88.0576 48.4726 87.6228 48.1209L76.347 39H76V38.7194Z" fill="#35373B"/>
</svg>
