<svg width="90" height="110" viewBox="0 0 90 110" fill="none" xmlns="http://www.w3.org/2000/svg">
<rect width="90" height="110" fill="#F5F5F5"/>
<path d="M75 74C75 57.4315 61.5685 44 45 44C28.4315 44 15 57.4315 15 74C15 90.5685 28.4315 104 45 104C61.5685 104 75 90.5685 75 74Z" stroke="#35373B" stroke-width="2"/>
<path d="M54 66.5001C55.5 65.5011 56.7 61.4001 55.5 59.0001C54.3 56.6001 48.999 55.0011 48 54.5001M35.955 81.2061C34.455 82.2051 33.255 86.3061 34.455 88.7061C35.655 91.1061 40.956 92.7051 41.955 93.2061M37.626 64.8321C36.624 63.3321 32.526 62.1321 30.126 63.3321C27.726 64.5321 26.124 69.8301 25.626 70.8321M52.332 82.8741C53.331 84.3741 57.432 85.5741 59.832 84.3741C62.232 83.1741 63.831 77.8761 64.332 76.8741M51 69.5001C55.5 63.5001 51 59.0001 43.5 54.5001C38.862 51.7191 49.5 50.0001 57 56.0001C62.625 60.5001 60 63.5001 51 72.5001V69.5001ZM38.955 78.2061C34.455 84.2061 38.955 88.7061 46.455 93.2061C51.093 95.9871 40.455 97.7061 32.955 91.7061C27.33 87.2061 29.955 84.2061 38.955 75.2061V78.2061ZM40.626 67.8321C34.626 63.3321 30.126 67.8321 25.626 75.3321C22.842 79.9701 21.126 69.3321 27.126 61.8321C31.626 56.2071 34.626 58.8321 43.626 67.8321H40.626ZM49.332 79.8741C55.332 84.3741 59.832 79.8741 64.332 72.3741C67.113 67.7361 68.832 78.3741 62.832 85.8741C58.332 91.5021 55.332 88.8741 46.332 79.8741H49.332Z" stroke="#35373B"/>
<circle cx="45.5" cy="73.5" r="3.5" fill="#FED4A0"/>
<path fill-rule="evenodd" clip-rule="evenodd" d="M64 26.4403L46.856 12.5728L46.3967 12L46.2718 12.1002L46.1512 12.0027L45.7041 12.5554L2.12331 47.5024C0.810345 48.5552 0.620168 50.4819 1.70196 51.7712L3.60417 54.0381C4.66756 55.3054 6.55615 55.4727 7.82573 54.412L46.0233 22.5001L83.1634 53.477C84.4332 54.536 86.3203 54.3681 87.3831 53.1016L89.2919 50.8267C90.3705 49.5413 90.1851 47.6212 88.8805 46.5659L78 37.7648V22C78 20.3431 76.6569 19 75 19H67C65.3431 19 64 20.3431 64 22V26.4403ZM66 28.0581L76 36.147V22C76 21.4477 75.5523 21 75 21H67C66.4477 21 66 21.4477 66 22V28.0581ZM76 38.7194L46.2663 14.6682L3.3745 49.0627C2.93684 49.4136 2.87345 50.0559 3.23405 50.4856L5.13626 52.7526C5.49072 53.175 6.12025 53.2308 6.54344 52.8772L45.8812 20.0127L46.0219 20.1812L46.1628 20.0122L84.4445 51.9411C84.8677 52.2941 85.4968 52.2382 85.851 51.816L87.7599 49.5411C88.1194 49.1127 88.0576 48.4726 87.6227 48.1209L76.3469 39H76V38.7194Z" fill="#35373B"/>
</svg>
