<svg width="90" height="110" viewBox="0 0 90 110" fill="none" xmlns="http://www.w3.org/2000/svg">
<rect width="90" height="110" fill="#F5F5F5"/>
<path d="M11 51V97C11 99.2091 12.7909 101 15 101H77C79.2091 101 81 99.2091 81 97V51" stroke="#35373B" stroke-width="2"/>
<path d="M3 101.5H88" stroke="#35373B" stroke-width="2" stroke-linecap="round"/>
<path d="M77 39V22C77 20.8954 76.1046 20 75 20H67C65.8954 20 65 20.8954 65 22V29" stroke="#35373B" stroke-width="2"/>
<path fill-rule="evenodd" clip-rule="evenodd" d="M46.856 12.5728L88.8805 46.5659C90.1851 47.6212 90.3705 49.5413 89.2919 50.8267L87.3831 53.1016C86.3203 54.3681 84.4332 54.536 83.1634 53.477L46.0233 22.5001L7.82573 54.412C6.55615 55.4727 4.66756 55.3054 3.60417 54.0381L1.70196 51.7712C0.620168 50.4819 0.810345 48.5552 2.12331 47.5024L45.7041 12.5554L46.1512 12.0027L46.2718 12.1002L46.3967 12L46.856 12.5728ZM46.2663 14.6682L3.3745 49.0627C2.93684 49.4136 2.87345 50.0559 3.23405 50.4856L5.13626 52.7526C5.49072 53.175 6.12025 53.2308 6.54344 52.8772L45.8812 20.0127L46.0219 20.1812L46.1628 20.0122L84.4445 51.9411C84.8677 52.2941 85.4968 52.2382 85.851 51.816L87.7599 49.5411C88.1194 49.1127 88.0576 48.4726 87.6227 48.1209L46.2663 14.6682Z" fill="#35373B"/>
<path d="M55.3222 87.4444V87.4443C55.319 84.5899 54.1836 81.8532 52.1652 79.8348C50.1468 77.8164 47.4101 76.681 44.5557 76.6778L44.5554 76.6778C41.9366 76.6807 39.4259 77.7224 37.5742 79.5742C35.7224 81.4259 34.6807 83.9366 34.6778 86.5554L34.6778 86.5557C34.6805 88.9388 35.6283 91.2236 37.3135 92.9087C38.9986 94.5939 41.2834 95.5418 43.6666 95.5444H43.6668C45.8143 95.5421 47.8731 94.6879 49.3916 93.1694C50.9101 91.6509 51.7643 89.5921 51.7667 87.4446V87.4443C51.7646 85.5325 51.0042 83.6996 49.6523 82.3477C48.3004 80.9958 46.4675 80.2354 44.5557 80.2333L44.5554 80.2333C42.8793 80.2351 41.2723 80.9018 40.087 82.087C38.9018 83.2723 38.2351 84.8793 38.2333 86.5555L38.2333 86.5557C38.2348 87.9962 38.8077 89.3773 39.8263 90.3959C40.8449 91.4145 42.226 91.9874 43.6666 91.9889H43.6667C44.2635 91.9889 44.8544 91.8713 45.4058 91.643C45.9571 91.4146 46.4581 91.0798 46.8801 90.6579C47.3021 90.2359 47.6368 89.7349 47.8652 89.1835C48.0936 88.6322 48.2111 88.0412 48.2111 87.4444C48.2111 86.4749 47.826 85.5451 47.1404 84.8596C46.4549 84.174 45.5251 83.7889 44.5556 83.7889C43.8218 83.7889 43.1181 84.0804 42.5992 84.5992C42.0804 85.1181 41.7889 85.8218 41.7889 86.5556C41.7889 87.0536 41.9867 87.5312 42.3389 87.8833C42.691 88.2355 43.1686 88.4333 43.6667 88.4333C43.9289 88.4333 44.1805 88.3292 44.3659 88.1437C44.5514 87.9582 44.6556 87.7067 44.6556 87.4444V87.3444H44.5556C44.3463 87.3444 44.1457 87.2613 43.9977 87.1134C43.8498 86.9654 43.7667 86.7648 43.7667 86.5556C43.7667 86.3463 43.8498 86.1457 43.9977 85.9977C44.1457 85.8498 44.3463 85.7667 44.5556 85.7667C45.0005 85.7667 45.4273 85.9434 45.7419 86.2581C46.0566 86.5727 46.2333 86.9995 46.2333 87.4444C46.2333 88.1252 45.9629 88.778 45.4816 89.2594C45.0002 89.7407 44.3474 90.0111 43.6667 90.0111C42.7502 90.0111 41.8713 89.647 41.2232 88.999C40.5752 88.351 40.2111 87.472 40.2111 86.5556C40.2111 85.4033 40.6688 84.2983 41.4836 83.4836C42.2983 82.6689 43.4033 82.2111 44.5555 82.2111C45.943 82.2126 47.2733 82.7644 48.2545 83.7455C49.2356 84.7267 49.7874 86.0569 49.7889 87.4444C49.7871 89.0676 49.1415 90.6238 47.9938 91.7716C46.846 92.9193 45.2898 93.5649 43.6667 93.5667C41.8078 93.5646 40.0257 92.8253 38.7113 91.5109C37.3969 90.1965 36.6576 88.4144 36.6556 86.5556C36.6579 84.4611 37.491 82.453 38.972 80.972C40.453 79.491 42.4611 78.6579 44.5556 78.6556C46.8857 78.6582 49.1197 79.585 50.7673 81.2327C52.415 82.8803 53.3418 85.1143 53.3444 87.4444C53.3415 90.0102 52.3209 92.4701 50.5066 94.2844C48.6923 96.0987 46.2325 97.1193 43.6667 97.1222C40.8652 97.119 38.1794 96.0047 36.1985 94.0237C34.2175 92.0428 33.1032 89.357 33.1 86.5556C33.1032 83.5183 34.3112 80.6065 36.4588 78.4588C38.6065 76.3112 41.5183 75.1032 44.5556 75.1C47.8284 75.1035 50.9662 76.4052 53.2805 78.7195C55.5948 81.0338 56.8965 84.1716 56.9 87.4446C56.9 87.6537 56.8169 87.8544 56.6689 88.0023C56.521 88.1502 56.3203 88.2333 56.1111 88.2333C55.9019 88.2333 55.7012 88.1502 55.5533 88.0023C55.4053 87.8543 55.3222 87.6537 55.3222 87.4444Z" fill="#FED4A0" stroke="#35373B" stroke-width="0.2"/>
<line x1="12" y1="71" x2="81" y2="71" stroke="#35373B" stroke-width="2"/>
<path d="M25.7071 49.2929C25.3166 48.9024 24.6834 48.9024 24.2929 49.2929L17.9289 55.6569C17.5384 56.0474 17.5384 56.6805 17.9289 57.0711C18.3195 57.4616 18.9526 57.4616 19.3431 57.0711L25 51.4142L30.6569 57.0711C31.0474 57.4616 31.6805 57.4616 32.0711 57.0711C32.4616 56.6805 32.4616 56.0474 32.0711 55.6569L25.7071 49.2929ZM26 66L26 50L24 50L24 66L26 66Z" fill="#35373B"/>
<path d="M45.7071 49.2929C45.3166 48.9024 44.6834 48.9024 44.2929 49.2929L37.9289 55.6569C37.5384 56.0474 37.5384 56.6805 37.9289 57.0711C38.3195 57.4616 38.9526 57.4616 39.3431 57.0711L45 51.4142L50.6569 57.0711C51.0474 57.4616 51.6805 57.4616 52.0711 57.0711C52.4616 56.6805 52.4616 56.0474 52.0711 55.6569L45.7071 49.2929ZM46 66L46 50L44 50L44 66L46 66Z" fill="#35373B"/>
<path d="M65.7071 49.2929C65.3166 48.9024 64.6834 48.9024 64.2929 49.2929L57.9289 55.6569C57.5384 56.0474 57.5384 56.6805 57.9289 57.0711C58.3195 57.4616 58.9526 57.4616 59.3431 57.0711L65 51.4142L70.6569 57.0711C71.0474 57.4616 71.6805 57.4616 72.0711 57.0711C72.4616 56.6805 72.4616 56.0474 72.0711 55.6569L65.7071 49.2929ZM66 66L66 50L64 50L64 66L66 66Z" fill="#35373B"/>
</svg>
