<svg width="90" height="110" viewBox="0 0 90 110" fill="none" xmlns="http://www.w3.org/2000/svg">
<rect width="90" height="110" fill="#F5F5F5"/>
<path d="M11 51V97C11 99.2091 12.7909 101 15 101H77C79.2091 101 81 99.2091 81 97V51" stroke="#35373B" stroke-width="2"/>
<path d="M3 101.5H88" stroke="#35373B" stroke-width="2" stroke-linecap="round"/>
<path d="M77 39V22C77 20.8954 76.1046 20 75 20H67C65.8954 20 65 20.8954 65 22V29" stroke="#35373B" stroke-width="2"/>
<path fill-rule="evenodd" clip-rule="evenodd" d="M46.856 12.5728L88.8805 46.5659C90.1851 47.6212 90.3705 49.5413 89.2919 50.8267L87.3831 53.1016C86.3203 54.3681 84.4332 54.536 83.1634 53.477L46.0233 22.5001L7.82573 54.412C6.55615 55.4727 4.66756 55.3054 3.60417 54.0381L1.70196 51.7712C0.620168 50.4819 0.810345 48.5552 2.12331 47.5024L45.7041 12.5554L46.1512 12.0027L46.2718 12.1002L46.3967 12L46.856 12.5728ZM46.2663 14.6682L3.3745 49.0627C2.93684 49.4136 2.87345 50.0559 3.23405 50.4856L5.13626 52.7526C5.49072 53.175 6.12025 53.2308 6.54344 52.8772L45.8812 20.0127L46.0219 20.1812L46.1628 20.0122L84.4445 51.9411C84.8677 52.2941 85.4968 52.2382 85.851 51.816L87.7599 49.5411C88.1194 49.1127 88.0576 48.4726 87.6227 48.1209L46.2663 14.6682Z" fill="#35373B"/>
<rect x="28.2892" y="47.787" width="33.3483" height="4.71226" rx="1.08744" stroke="#35373B" stroke-width="0.724963"/>
<line x1="32.3271" y1="47.6022" x2="38.1268" y2="37.8152" stroke="#35373B" stroke-width="0.724963"/>
<line x1="37.7137" y1="38" x2="52.938" y2="38" stroke="#35373B" stroke-width="0.724963"/>
<line x1="52.5346" y1="37.8328" x2="57.5516" y2="47.4808" stroke="#35373B" stroke-width="0.724963"/>
<path d="M33.2784 58.5581L27 62.1829" stroke="#35373B" stroke-width="0.724963" stroke-linecap="round"/>
<path d="M37.8707 63.1019L34.2459 69.3802" stroke="#35373B" stroke-width="0.724963" stroke-linecap="round"/>
<path d="M45.1446 64.8236V72.0732" stroke="#35373B" stroke-width="0.724963" stroke-linecap="round"/>
<path d="M52.5269 63.1924L56.1517 69.4708" stroke="#35373B" stroke-width="0.724963" stroke-linecap="round"/>
<path d="M54.841 58.142L61.1194 61.7668" stroke="#35373B" stroke-width="0.724963" stroke-linecap="round"/>
<mask id="path-14-inside-1_44_1940" fill="white">
<path fill-rule="evenodd" clip-rule="evenodd" d="M38.9619 52.1368C38.9619 55.5401 41.7208 58.299 45.1241 58.299C48.5274 58.299 51.2863 55.5401 51.2863 52.1368H38.9619Z"/>
</mask>
<path fill-rule="evenodd" clip-rule="evenodd" d="M38.9619 52.1368C38.9619 55.5401 41.7208 58.299 45.1241 58.299C48.5274 58.299 51.2863 55.5401 51.2863 52.1368H38.9619Z" fill="#FED4A0"/>
<path d="M38.9619 52.1368V51.4118H38.237V52.1368H38.9619ZM51.2863 52.1368H52.0113V51.4118H51.2863V52.1368ZM45.1241 57.574C42.1212 57.574 39.6869 55.1397 39.6869 52.1368H38.237C38.237 55.9404 41.3204 59.0239 45.1241 59.0239V57.574ZM50.5613 52.1368C50.5613 55.1397 48.127 57.574 45.1241 57.574V59.0239C48.9278 59.0239 52.0113 55.9404 52.0113 52.1368H50.5613ZM51.2863 51.4118H38.9619V52.8617H51.2863V51.4118Z" fill="#35373B" mask="url(#path-14-inside-1_44_1940)"/>
</svg>
