<svg width="90" height="110" viewBox="0 0 90 110" fill="none" xmlns="http://www.w3.org/2000/svg">
<rect width="90" height="110" fill="#F5F5F5"/>
<path d="M11 51V97C11 99.2091 12.7909 101 15 101H77C79.2091 101 81 99.2091 81 97V51" stroke="#35373B" stroke-width="2"/>
<path d="M3 101.5H88" stroke="#35373B" stroke-width="2" stroke-linecap="round"/>
<path d="M77 39V22C77 20.8954 76.1046 20 75 20H67C65.8954 20 65 20.8954 65 22V29" stroke="#35373B" stroke-width="2"/>
<path fill-rule="evenodd" clip-rule="evenodd" d="M46.856 12.5728L88.8805 46.5659C90.1851 47.6212 90.3705 49.5413 89.2919 50.8267L87.3831 53.1016C86.3203 54.3681 84.4332 54.536 83.1634 53.477L46.0233 22.5001L7.82573 54.412C6.55615 55.4727 4.66756 55.3054 3.60417 54.0381L1.70196 51.7712C0.620168 50.4819 0.810345 48.5552 2.12331 47.5024L45.7041 12.5554L46.1512 12.0027L46.2718 12.1002L46.3967 12L46.856 12.5728ZM46.2663 14.6682L3.3745 49.0627C2.93684 49.4136 2.87345 50.0559 3.23405 50.4856L5.13626 52.7526C5.49072 53.175 6.12025 53.2308 6.54344 52.8772L45.8812 20.0127L46.0219 20.1812L46.1628 20.0122L84.4445 51.9411C84.8677 52.2941 85.4968 52.2382 85.851 51.816L87.7599 49.5411C88.1194 49.1127 88.0576 48.4726 87.6227 48.1209L46.2663 14.6682Z" fill="#35373B"/>
<path d="M45.0002 66H45C43.6338 66 42.3251 66.2619 41.0758 66.7857C39.9051 67.2766 38.8601 67.9597 37.9418 68.8341L35.6655 66.5036C36.8919 65.3194 38.2848 64.4061 39.8453 63.7624C41.4812 63.0875 43.1988 62.75 45 62.75C46.8007 62.75 48.5234 63.0928 50.1702 63.7783C51.7406 64.4321 53.1285 65.3593 54.3352 66.5612L52.0604 68.836C51.1423 67.9599 50.0964 67.2761 48.924 66.7856C47.674 66.2627 46.3654 66.0009 45.0002 66ZM44.9999 55.25H45C47.8008 55.25 50.4821 55.7803 53.0457 56.841C55.5327 57.87 57.7328 59.339 59.6473 61.2492L57.3738 63.5226C55.7469 61.939 53.888 60.7137 51.7982 59.8478C49.6318 58.9501 47.3651 58.5008 45.0001 58.5H45C42.6341 58.5 40.367 58.9493 38.2005 59.8478C36.1108 60.7145 34.2523 61.9398 32.6262 63.5226L30.3527 61.2492C32.2681 59.3381 34.4685 57.8688 36.9556 56.8398C39.5191 55.7791 42.1999 55.2492 44.9999 55.25ZM49.0499 71.8166L45 75.8952L40.9502 71.8167C41.4672 71.3403 42.0517 70.9683 42.705 70.7C43.4353 70.4 44.1997 70.25 45 70.25C45.8012 70.25 46.566 70.4 47.2963 70.7C47.9495 70.9683 48.5336 71.3402 49.0499 71.8166Z" fill="#FED4A0" stroke="#35373B" stroke-width="0.5"/>
</svg>
