<svg width="90" height="110" viewBox="0 0 90 110" fill="none" xmlns="http://www.w3.org/2000/svg">
<rect width="90" height="110" fill="#F5F5F5"/>
<path d="M11 51V97C11 99.2091 12.7909 101 15 101H77C79.2091 101 81 99.2091 81 97V51" stroke="#35373B" stroke-width="2"/>
<path d="M3 101.5H88" stroke="#35373B" stroke-width="2" stroke-linecap="round"/>
<path d="M77 39V22C77 20.8954 76.1046 20 75 20H67C65.8954 20 65 20.8954 65 22V29" stroke="#35373B" stroke-width="2"/>
<path fill-rule="evenodd" clip-rule="evenodd" d="M46.856 12.5728L88.8805 46.5659C90.1851 47.6212 90.3705 49.5413 89.2919 50.8267L87.3831 53.1016C86.3203 54.3681 84.4332 54.5361 83.1634 53.477L46.0233 22.5001L7.82573 54.412C6.55615 55.4727 4.66756 55.3054 3.60417 54.0381L1.70196 51.7712C0.620168 50.4819 0.810345 48.5552 2.12331 47.5024L45.7041 12.5554L46.1512 12.0027L46.2718 12.1002L46.3967 12L46.856 12.5728ZM46.2663 14.6682L3.3745 49.0627C2.93684 49.4136 2.87345 50.0559 3.23405 50.4856L5.13626 52.7526C5.49072 53.175 6.12025 53.2308 6.54344 52.8772L45.8812 20.0127L46.0219 20.1812L46.1628 20.0122L84.4445 51.9411C84.8677 52.2942 85.4968 52.2382 85.851 51.816L87.7599 49.5411C88.1194 49.1127 88.0576 48.4726 87.6227 48.1209L46.2663 14.6682Z" fill="#35373B"/>
<path d="M23.6 17.2C23.6 21.8392 19.8392 25.6 15.2 25.6C10.5608 25.6 6.80001 21.8392 6.80001 17.2C6.80001 12.5608 10.5608 8.80001 15.2 8.80001C19.8392 8.80001 23.6 12.5608 23.6 17.2Z" fill="#FED4A0" stroke="#35373B" stroke-width="1.2"/>
<path d="M1 17.2H4" stroke="#35373B" stroke-width="1.2" stroke-linecap="round"/>
<path d="M4.42429 7.37573L6.54561 9.49705" stroke="#35373B" stroke-width="1.2" stroke-linecap="round"/>
<path d="M26.4 17.2H29.4" stroke="#35373B" stroke-width="1.2" stroke-linecap="round"/>
<path d="M24.1758 10.097L26.2971 7.97573" stroke="#35373B" stroke-width="1.2" stroke-linecap="round"/>
<path d="M15.2 6V3" stroke="#35373B" stroke-width="1.2" stroke-linecap="round"/>
<rect x="11" y="25.6" width="8.4" height="7.2" rx="0.6" stroke="#35373B" stroke-width="1.2"/>
<rect x="11" y="28" width="8.4" height="2.4" rx="0.6" stroke="#35373B" stroke-width="1.2"/>
<rect x="13.4" y="32.8" width="3.6" height="2.4" rx="0.6" stroke="#35373B" stroke-width="1.2"/>
</svg>
