<svg width="90" height="110" viewBox="0 0 90 110" fill="none" xmlns="http://www.w3.org/2000/svg">
<rect width="90" height="110" fill="#F5F5F5"/>
<rect x="9" y="9" width="72" height="92" rx="7" stroke="#35373B" stroke-width="2"/>
<path fill-rule="evenodd" clip-rule="evenodd" d="M46.7851 28.9692L58.4695 52.0982C59.1415 53.4285 58.1748 55 56.6844 55H33.3156C31.8253 55 30.8585 53.4285 31.5305 52.0982L43.2149 28.9692C43.9546 27.5049 46.0454 27.5049 46.7851 28.9692ZM41.4297 28.0673C42.9091 25.1388 47.0909 25.1389 48.5703 28.0673L60.2547 51.1964C61.5987 53.8569 59.6651 57 56.6844 57H33.3156C30.3349 57 28.4013 53.8569 29.7454 51.1964L41.4297 28.0673ZM47.4488 43.997C47.9723 44.1731 48.2539 44.7401 48.0779 45.2636L45.7867 52.0763C45.6106 52.5997 45.0435 52.8814 44.5201 52.7053C43.9966 52.5293 43.7149 51.9622 43.891 51.4387L45.7387 45.9448H42.3964C42.2294 45.9784 42.0516 45.9697 41.8787 45.9109C41.3557 45.7333 41.0758 45.1654 41.2535 44.6424L44.0267 36.4786C44.2044 35.9557 44.7723 35.6757 45.2952 35.8534C45.8182 36.031 46.0981 36.599 45.9204 37.1219L43.6027 43.9448H47.0895L47.1031 43.9449C47.2174 43.9418 47.3342 43.9584 47.4488 43.997Z" fill="#35373B"/>
<rect x="30" y="67" width="30" height="2" rx="1" fill="#35373B"/>
<rect x="30" y="73" width="30" height="2" rx="1" fill="#35373B"/>
<rect x="30" y="79" width="30" height="2" rx="1" fill="#35373B"/>
<rect x="71" y="33" width="6" height="12" rx="3" fill="#FED4A0" stroke="#35373B" stroke-width="2"/>
<rect x="71" y="67" width="6" height="12" rx="3" fill="#FED4A0" stroke="#35373B" stroke-width="2"/>
<path fill-rule="evenodd" clip-rule="evenodd" d="M67 19H23C19.6863 19 17 21.6863 17 25V85C17 88.3137 19.6863 91 23 91H67C70.3137 91 73 88.3137 73 85V80H75V85C75 89.4183 71.4183 93 67 93H23C18.5817 93 15 89.4183 15 85V25C15 20.5817 18.5817 17 23 17H67C71.4183 17 75 20.5817 75 25V33H73V25C73 21.6863 70.3137 19 67 19ZM75 66V45H73V66H75Z" fill="#35373B"/>
</svg>
