<svg width="15" height="17" viewBox="0 0 15 17" fill="none" xmlns="http://www.w3.org/2000/svg">
<path d="M14.2779 11.429L10.7446 9.63467L10.7348 9.62957C10.5514 9.54066 10.3513 9.50497 10.1527 9.52575C9.954 9.54653 9.76305 9.62311 9.59707 9.74857C9.57753 9.7632 9.55875 9.77909 9.54083 9.79617L7.71531 11.5599C6.5588 10.9233 5.3648 9.58027 4.80304 8.28656L6.36155 6.18619C6.37655 6.16494 6.3908 6.14369 6.4043 6.12074C6.51262 5.93314 6.57835 5.71811 6.59562 5.49477C6.61289 5.27143 6.58118 5.04672 6.5033 4.84062V4.83042L4.91554 0.819236C4.8126 0.550008 4.63558 0.325734 4.41093 0.179892C4.18627 0.0340509 3.92602 -0.0255355 3.66903 0.0100281C2.65275 0.16159 1.7199 0.727238 1.04471 1.60132C0.369525 2.47541 -0.00183071 3.59816 6.78653e-06 4.75987C6.78653e-06 11.5089 4.84504 17 10.8001 17C11.8251 17.0021 12.8158 16.5812 13.587 15.816C14.3583 15.0508 14.8574 13.9935 14.9911 12.8418C15.0226 12.5506 14.9701 12.2557 14.8415 12.0011C14.713 11.7465 14.5153 11.5458 14.2779 11.429ZM10.8001 15.64C8.25484 15.6368 5.81464 14.4895 4.01488 12.4498C2.21512 10.4101 1.20279 7.64449 1.20002 4.75987C1.19719 3.92983 1.46106 3.127 1.94232 2.50132C2.42359 1.87564 3.08936 1.46989 3.81528 1.35984C3.81499 1.36323 3.81499 1.36665 3.81528 1.37004L5.3903 5.36508L3.84003 7.468C3.8243 7.48852 3.81001 7.5104 3.79728 7.53345C3.68442 7.72973 3.61821 7.95573 3.60507 8.18954C3.59193 8.42335 3.6323 8.65704 3.72228 8.86796C4.40179 10.443 5.80205 12.0181 7.20681 12.7874C7.39428 12.8884 7.60167 12.9326 7.80872 12.9156C8.01577 12.8986 8.21538 12.821 8.38807 12.6904C8.40732 12.6757 8.42585 12.6599 8.44357 12.6429L10.2668 10.8799L13.7919 12.6692H13.8001C13.7042 13.4931 13.3467 14.2491 12.7945 14.7959C12.2424 15.3427 11.5333 15.6428 10.8001 15.64Z" fill="#FED4A0"/>
</svg>
