<svg width="170" height="170" viewBox="0 0 170 170" fill="none" xmlns="http://www.w3.org/2000/svg">
<path d="M38.5677 45.9626C59.8678 20.5782 97.7131 17.2671 123.098 38.5672C148.482 59.8673 151.793 97.7127 130.493 123.097C109.193 148.482 71.3476 151.793 45.9631 130.493C20.5786 109.192 17.2676 71.3471 38.5677 45.9626Z" fill="#35373B"/>
<path d="M58.1996 62.3426C70.0922 48.1696 91.2225 46.321 105.395 58.2135C119.568 70.1061 121.417 91.2364 109.525 105.409C97.632 119.582 76.5017 121.431 62.3287 109.539C48.1557 97.646 46.3071 76.5156 58.1996 62.3426Z" fill="#F5F5F5"/>
<path d="M57.2766 54.148L47.98 46.9066L50.2093 45.4047L58.3926 51.8528L57.278 52.6037L54.4954 42.5171L56.4858 41.1762L64.6824 47.6153L63.6075 48.3394L60.7718 38.2886L62.8286 36.9029L66.0478 48.2388L63.7389 49.7943L56.5269 44.1581L57.1373 43.7468L59.5855 52.5925L57.2766 54.148Z" fill="#FED4A0"/>
<path d="M78.227 44.9089C77.2555 45.0476 76.3731 44.9796 75.5796 44.705C74.7967 44.4288 74.1579 43.992 73.6632 43.3946C73.167 42.7866 72.8586 42.0603 72.738 41.2155C72.6159 40.3602 72.7035 39.5773 73.0008 38.8668C73.3071 38.1443 73.7771 37.5492 74.4107 37.0817C75.0428 36.6035 75.7918 36.3027 76.6577 36.1791C77.4919 36.06 78.2673 36.1325 78.9838 36.3966C79.7093 36.6486 80.3149 37.0793 80.8006 37.6888C81.2848 38.2878 81.5924 39.0466 81.7235 39.9653C81.7371 40.0603 81.7476 40.1719 81.7552 40.3002C81.7612 40.4178 81.7665 40.5302 81.771 40.6373L74.8491 41.6253L74.6434 40.1839L80.2664 39.3813L79.3771 39.9446C79.3138 39.5011 79.169 39.1285 78.9428 38.8268C78.7165 38.525 78.4322 38.307 78.0898 38.1727C77.7459 38.0279 77.3627 37.9856 76.9403 38.0459C76.5179 38.1062 76.1566 38.2547 75.8564 38.4915C75.5653 38.7162 75.354 39.0104 75.2227 39.3739C75.09 39.7269 75.056 40.1304 75.1208 40.5845L75.175 40.9646C75.2414 41.4292 75.4005 41.8267 75.6523 42.1571C75.9133 42.4755 76.2421 42.7033 76.6388 42.8406C77.0446 42.9659 77.5009 42.9923 78.0078 42.92C78.4618 42.8552 78.848 42.73 79.1663 42.5445C79.4952 42.3575 79.7826 42.1063 80.0285 41.7911L81.5467 43.029C81.2193 43.5283 80.7772 43.9415 80.2206 44.2688C79.6624 44.5855 78.9979 44.7989 78.227 44.9089Z" fill="#FED4A0"/>
<path d="M91.5274 35.256L89.0581 32.4996L91.7081 32.9497L93.4518 35.5828L91.5274 35.256Z" fill="#FED4A0"/>
<path d="M97.8495 46.9016L102.425 35.9467L104.728 36.9086L100.153 47.8635L97.8495 46.9016Z" fill="#FED4A0"/>
<path d="M103.184 49.3941L109.33 39.2366L111.466 40.5287L105.32 50.6862L103.184 49.3941Z" fill="#FED4A0"/>
<path d="M111.738 55.8603L120.367 47.707L122.081 49.5213L113.452 57.6746L111.738 55.8603Z" fill="#FED4A0"/>
<path d="M115.595 60.3094L122.66 55.3921L124.086 57.4408L117.021 62.3581L115.595 60.3094ZM124.358 55.731C124.096 55.3545 123.992 54.9719 124.047 54.5832C124.101 54.1945 124.29 53.8874 124.614 53.6619C124.938 53.4365 125.292 53.3658 125.675 53.4498C126.058 53.5339 126.381 53.7641 126.643 54.1406C126.905 54.5171 127.013 54.8966 126.968 55.2792C126.931 55.6558 126.751 55.9568 126.427 56.1822C126.085 56.4198 125.718 56.4997 125.326 56.4217C124.949 56.3464 124.626 56.1162 124.358 55.731Z" fill="#FED4A0"/>
<path d="M117.657 70.6741C117.379 69.9126 117.205 69.1414 117.136 68.3605C117.06 67.5933 117.122 66.9065 117.321 66.3002L119.344 66.6173C119.188 67.0605 119.125 67.5718 119.155 68.1513C119.178 68.7446 119.283 69.2967 119.47 69.8077C119.774 70.6393 120.179 71.1728 120.685 71.4081C121.194 71.6535 121.815 71.6426 122.547 71.3755L123.764 70.931L125.848 70.3403L127.881 69.5639L129.624 68.9272L130.436 71.1516L123.703 73.6103C122.2 74.1592 120.95 74.1727 119.954 73.651C118.957 73.1292 118.191 72.1369 117.657 70.6741ZM120.952 69.062C120.678 68.3106 120.589 67.5707 120.687 66.8424C120.798 66.1205 121.076 65.4681 121.522 64.8852C121.981 64.3086 122.602 63.8776 123.383 63.5922C124.175 63.3032 124.927 63.2329 125.64 63.3814C126.367 63.5362 127 63.8557 127.54 64.3398C128.084 64.8339 128.493 65.4567 128.767 66.2081C129.016 66.8895 129.095 67.5418 129.005 68.1653C128.925 68.7851 128.647 69.3464 128.172 69.8492C127.707 70.3483 127.024 70.7625 126.122 71.0918C125.23 71.4174 124.441 71.5411 123.754 71.4627C123.076 71.3807 122.502 71.1304 122.032 70.7119C121.561 70.2933 121.201 69.7434 120.952 69.062ZM123.046 68.8254C123.196 69.2362 123.41 69.5727 123.687 69.8348C123.975 70.0932 124.302 70.2577 124.668 70.3283C125.034 70.3989 125.413 70.3628 125.804 70.2201C126.205 70.0738 126.517 69.8574 126.742 69.5709C126.977 69.2808 127.116 68.9461 127.159 68.567C127.212 68.1841 127.164 67.7873 127.014 67.3765C126.864 66.9657 126.645 66.6311 126.358 66.3727C126.08 66.1106 125.757 65.9393 125.386 65.8587C125.03 65.7844 124.651 65.8205 124.251 65.9668C123.86 66.1095 123.547 66.3259 123.312 66.6161C123.081 66.9162 122.939 67.2577 122.886 67.6405C122.843 68.0197 122.896 68.4146 123.046 68.8254Z" fill="#FED4A0"/>
<path d="M132.094 84.6309C132.089 85.3135 131.946 85.9205 131.665 86.4518C131.394 86.9938 130.975 87.4175 130.408 87.7227C129.851 88.028 129.135 88.1775 128.26 88.1711L123.333 88.1353L123.351 85.6394L127.895 85.6724C128.588 85.6774 129.101 85.5265 129.434 85.2196C129.767 84.9233 129.935 84.4978 129.939 83.9432C129.942 83.5485 129.859 83.1906 129.691 82.8694C129.533 82.5589 129.284 82.3117 128.944 82.1279C128.604 81.9548 128.167 81.8663 127.634 81.8624L123.378 81.8315L123.396 79.3356L135.268 79.4218L135.25 81.9177L129.602 81.8767L130.326 81.3219C130.9 81.6354 131.339 82.0813 131.644 82.6595C131.95 83.2378 132.1 83.8949 132.094 84.6309Z" fill="#FED4A0"/>
<path d="M121.249 96.3009C121.54 95.33 122.011 94.6471 122.664 94.2521C123.326 93.8602 124.148 93.8109 125.129 94.1042L132.365 96.2675L131.65 98.6589L124.445 96.5048C124.097 96.4009 123.799 96.4119 123.55 96.5378C123.311 96.6668 123.144 96.8896 123.049 97.2065C122.936 97.5846 122.942 97.9371 123.067 98.2639L121.189 98.4036C121.088 98.1063 121.044 97.7703 121.056 97.3953C121.075 97.0336 121.139 96.6688 121.249 96.3009ZM128.897 93.8448L130.737 94.3947L129.027 100.113L127.188 99.5627L128.897 93.8448Z" fill="#FED4A0"/>
<path d="M114.962 108.03C115.411 107.474 115.921 107.063 116.492 106.797C117.056 106.54 117.655 106.468 118.289 106.582C118.932 106.703 119.597 107.042 120.286 107.597L124.072 110.651L122.505 112.594L119.006 109.771C118.449 109.322 117.945 109.107 117.492 109.125C117.04 109.158 116.64 109.391 116.292 109.823C116.051 110.121 115.899 110.437 115.836 110.77C115.781 111.11 115.833 111.453 115.991 111.8C116.158 112.154 116.445 112.495 116.852 112.823L120.164 115.496L118.597 117.438L111.897 112.033L113.384 110.19L115.227 111.677L114.42 111.582C114.136 110.982 114.051 110.366 114.166 109.731C114.281 109.112 114.547 108.545 114.962 108.03Z" fill="#FED4A0"/>
<path d="M104.184 117.609C104.804 117.231 105.429 117.037 106.06 117.027C106.691 117.017 107.308 117.21 107.911 117.604C108.51 118.013 109.071 118.646 109.593 119.502C110.12 120.367 110.43 121.153 110.523 121.858C110.616 122.564 110.513 123.194 110.215 123.751C109.918 124.307 109.445 124.783 108.799 125.177C108.107 125.599 107.39 125.817 106.649 125.832C105.905 125.861 105.201 125.69 104.538 125.32C103.866 124.955 103.297 124.39 102.83 123.625C102.358 122.851 102.114 122.082 102.098 121.317C102.072 120.558 102.243 119.854 102.61 119.206C102.967 118.563 103.492 118.031 104.184 117.609ZM106.979 112.419L113.076 122.419L111.041 123.66L110.125 122.157L108.833 119.947L107.372 117.858L104.848 113.718L106.979 112.419ZM105.619 119.132C105.264 119.349 105 119.623 104.827 119.953C104.644 120.289 104.563 120.657 104.582 121.058C104.598 121.473 104.733 121.89 104.989 122.309C105.25 122.737 105.558 123.049 105.915 123.244C106.262 123.444 106.627 123.54 107.009 123.532C107.382 123.53 107.746 123.42 108.101 123.203C108.457 122.987 108.725 122.711 108.908 122.374C109.09 122.038 109.172 121.67 109.152 121.27C109.133 120.869 108.993 120.455 108.732 120.027C108.476 119.608 108.172 119.294 107.82 119.084C107.472 118.883 107.108 118.787 106.725 118.795C106.343 118.804 105.974 118.916 105.619 119.132Z" fill="#FED4A0"/>
<path d="M90.2065 119.695C90.6523 119.651 91.0996 119.676 91.5485 119.772C91.9973 119.867 92.3717 120.023 92.6718 120.24L91.9382 122.097C91.7304 121.946 91.4997 121.834 91.2462 121.763C90.982 121.692 90.7278 121.669 90.4837 121.693C90.1334 121.728 89.8657 121.84 89.6808 122.03C89.4841 122.21 89.3197 122.499 89.1875 122.898L88.8452 123.993L88.6807 124.282L86.3352 131.973L83.9468 132.208L86.9207 122.735C87.1287 122.018 87.3938 121.445 87.7161 121.017C88.0277 120.59 88.3933 120.275 88.8128 120.073C89.2218 119.872 89.6863 119.746 90.2065 119.695ZM89.0254 122.721L93.7235 131.246L91.1599 131.498L87.4926 124.624L89.0254 122.721Z" fill="#FED4A0"/>
<path d="M75.8781 122.439C76.7748 122.632 77.532 122.992 78.1496 123.518C78.7567 124.042 79.1939 124.671 79.4611 125.405C79.7155 126.147 79.7528 126.936 79.5728 127.77C79.3906 128.614 79.0316 129.317 78.4959 129.878C77.9475 130.447 77.2899 130.84 76.523 131.056C75.7434 131.281 74.9053 131.297 74.0086 131.103C73.1223 130.912 72.3704 130.553 71.7528 130.027C71.1329 129.511 70.6946 128.888 70.4379 128.156C70.1812 127.424 70.145 126.63 70.3295 125.775C70.5095 124.941 70.8685 124.238 71.4064 123.667C71.9421 123.106 72.5998 122.713 73.3793 122.489C74.1589 122.264 74.9918 122.247 75.8781 122.439ZM75.4462 124.44C75.0395 124.353 74.6543 124.368 74.2906 124.486C73.9269 124.604 73.6141 124.814 73.3521 125.118C73.088 125.432 72.9041 125.829 72.8006 126.309C72.6949 126.799 72.6988 127.236 72.8122 127.62C72.9256 128.005 73.1237 128.326 73.4065 128.583C73.6892 128.841 74.0339 129.013 74.4405 129.101C74.8472 129.189 75.2323 129.174 75.5961 129.056C75.9598 128.938 76.2778 128.728 76.5502 128.427C76.8121 128.123 76.9959 127.727 77.1017 127.237C77.2052 126.757 77.2013 126.32 77.0901 125.925C76.9663 125.538 76.763 125.216 76.4802 124.958C76.1975 124.701 75.8528 124.528 75.4462 124.44Z" fill="#FED4A0"/>
<path d="M64.1923 117.999C64.8038 118.368 65.2796 118.818 65.6197 119.348C65.9507 119.873 66.1022 120.457 66.0742 121.101C66.0407 121.754 65.7948 122.459 65.3365 123.216L62.8186 127.378L60.6831 126.086L63.0105 122.239C63.3804 121.628 63.526 121.099 63.4472 120.652C63.3537 120.209 63.0696 119.844 62.5951 119.557C62.2665 119.358 61.9331 119.25 61.5947 119.232C61.2508 119.223 60.9175 119.321 60.5948 119.525C60.2666 119.737 59.9672 120.067 59.6966 120.515L57.4935 124.156L55.3579 122.864L59.8139 115.499L61.8399 116.725L60.6141 118.751L60.6007 117.939C61.1563 117.577 61.756 117.41 62.3998 117.438C63.029 117.469 63.6265 117.656 64.1923 117.999Z" fill="#FED4A0"/>
<path d="M56.7955 112.75L50.5386 118.661L48.9013 116.929L50.6691 115.258L50.3881 115.986C49.7704 116.218 49.1549 116.234 48.5418 116.036C47.921 115.844 47.3322 115.454 46.7755 114.865L48.4502 113.283C48.5157 113.367 48.5777 113.441 48.6363 113.503C48.6872 113.572 48.7456 113.642 48.8115 113.712C49.2803 114.208 49.8047 114.475 50.3846 114.515C50.9494 114.553 51.5303 114.291 52.1273 113.726L55.0814 110.935L56.7955 112.75Z" fill="#FED4A0"/>
<path d="M49.0698 102.654L38.4193 107.899L37.3165 105.66L47.9671 100.415L49.0698 102.654Z" fill="#FED4A0"/>
<path d="M46.6224 97.136L38.4143 99.7292L37.6624 97.3491L45.8705 94.7559L46.6224 97.136ZM36.8941 98.9006C37.0323 99.338 37.0176 99.7341 36.8501 100.089C36.6826 100.444 36.4106 100.681 36.0343 100.8C35.658 100.919 35.2993 100.881 34.9583 100.687C34.6172 100.492 34.3776 100.177 34.2394 99.7393C34.1013 99.302 34.1108 98.9074 34.2682 98.5557C34.4154 98.2071 34.6771 97.9734 35.0535 97.8545C35.4501 97.7292 35.8241 97.7621 36.1753 97.9532C36.5131 98.1373 36.7527 98.4531 36.8941 98.9006Z" fill="#FED4A0"/>
<path d="M44.9451 90.9547L36.2163 92.0713C35.2534 92.1945 34.4498 92.007 33.8054 91.5087C33.1504 91.0118 32.7552 90.2343 32.6198 89.1763C32.5738 88.8166 32.5669 88.468 32.599 88.1305C32.6297 87.7824 32.7095 87.4819 32.8385 87.2288L34.7151 87.6501C34.6375 87.7998 34.583 87.9627 34.5518 88.1388C34.5205 88.3148 34.5171 88.4981 34.5415 88.6885C34.5875 89.0482 34.7292 89.3151 34.9665 89.489C35.1919 89.6538 35.5109 89.7097 35.9235 89.657L36.7171 89.5554L37.7723 89.3559L44.6284 88.4788L44.9451 90.9547ZM38.6702 93.0962L36.7657 93.3399L36.0084 87.4201L37.9129 87.1765L38.6702 93.0962Z" fill="#FED4A0"/>
<path d="M44.8516 78.5181C44.7158 79.49 44.4061 80.3191 43.9225 81.0055C43.4403 81.6812 42.8437 82.1741 42.1327 82.484C41.4111 82.7925 40.6277 82.8877 39.7826 82.7696C38.9269 82.65 38.1988 82.3491 37.5985 81.8667C36.989 81.3723 36.5474 80.7559 36.2736 80.0176C35.9892 79.2778 35.9076 78.4748 36.0286 77.6085C36.1452 76.774 36.4296 76.049 36.8817 75.4336C37.3248 74.8063 37.9064 74.3436 38.6265 74.0457C39.3361 73.7464 40.1504 73.6609 41.0695 73.7893C41.1646 73.8026 41.2748 73.8233 41.4001 73.8516C41.5148 73.8784 41.6243 73.9045 41.7284 73.9298L40.761 80.8546L39.319 80.6531L40.1049 75.0277L40.3999 76.0383C39.9562 75.9763 39.5581 76.0122 39.2055 76.146C38.8529 76.2799 38.5647 76.4927 38.3408 76.7845C38.1064 77.0749 37.9597 77.4313 37.9006 77.8539C37.8416 78.2765 37.8843 78.6648 38.0287 79.0188C38.164 79.3608 38.3881 79.6453 38.7011 79.8721C39.0035 80.0974 39.3818 80.2418 39.8361 80.3053L40.2164 80.3584C40.6812 80.4234 41.1072 80.3806 41.4944 80.23C41.8726 80.0675 42.1825 79.8146 42.4243 79.4714C42.6571 79.1162 42.8088 78.685 42.8797 78.178C42.9431 77.7237 42.9298 77.318 42.8397 76.9607C42.7511 76.5929 42.5894 76.2472 42.3546 75.9236L43.9645 74.8076C44.3535 75.2605 44.6282 75.7997 44.7886 76.4252C44.9383 77.0493 44.9593 77.7469 44.8516 78.5181Z" fill="#FED4A0"/>
<path d="M43.1289 68.8585L36.1558 66.6032L37.2611 63.8401L43.8658 67.0165L43.1289 68.8585ZM47.2261 69.4291C47.0597 69.8451 46.7893 70.1333 46.4149 70.2937C46.0406 70.4541 45.6702 70.4611 45.3037 70.3145C44.9274 70.1639 44.6689 69.9054 44.5283 69.539C44.3778 69.1686 44.3857 68.7754 44.5521 68.3594C44.7225 67.9336 44.9879 67.6434 45.3484 67.4889C45.703 67.3206 46.0684 67.3117 46.4448 67.4622C46.8112 67.6088 47.0746 67.8693 47.235 68.2437C47.3994 68.6081 47.3964 69.0033 47.2261 69.4291Z" fill="#FED4A0"/>
<circle cx="84" cy="84" r="29" fill="#FED4A0" stroke="#35373B" stroke-width="2"/>
<line x1="70" y1="59" x2="70" y2="109" stroke="#35373B" stroke-width="2"/>
<line x1="99" y1="59" x2="99" y2="109" stroke="#35373B" stroke-width="2"/>
<line x1="59" y1="70" x2="109" y2="70" stroke="#35373B" stroke-width="2"/>
<line x1="59" y1="98" x2="109" y2="98" stroke="#35373B" stroke-width="2"/>
</svg>
