<svg width="90" height="110" viewBox="0 0 90 110" fill="none" xmlns="http://www.w3.org/2000/svg">
<rect width="90" height="110" fill="#F5F5F5"/>
<circle opacity="0.6" cx="28" cy="90" r="5" fill="#FED4A0"/>
<path d="M55.4856 79.2558L55.4855 79.2557C53.6333 77.3445 52.3162 75.4346 51.1279 73.6674C51.048 73.5486 50.9687 73.4304 50.8899 73.3131C49.7912 71.6762 48.7935 70.1898 47.542 68.899C46.3113 67.6297 45.1357 66.6248 44.2684 65.9377C43.835 65.5943 43.4792 65.3308 43.2329 65.1539C43.2195 65.1443 43.2065 65.1349 43.1938 65.1259L42.8495 65.4809L42.4905 65.8511L42.1316 65.4809L37.8086 61.0229L37.4711 60.6749L37.8085 60.3268L39.4764 58.6065C39.4766 58.6063 39.4769 58.606 39.4771 58.6057C39.523 58.5574 39.5486 58.4933 39.5486 58.4267C39.5486 58.36 39.523 58.2958 39.4771 58.2475C39.4768 58.2473 39.4766 58.247 39.4764 58.2468L39.1334 57.8931L38.7907 57.5396L39.1389 57.1915C39.0702 57.2602 40.3894 55.5139 42.4373 54.0589C44.5009 52.5928 47.4437 51.3047 50.7603 52.2807L50.7614 52.281C50.9253 52.3297 51.0977 52.3902 51.2581 52.449C51.0331 52.1895 50.7727 51.921 50.5575 51.7009L50.5574 51.7008C48.6617 49.7611 46.7431 48.87 44.9422 48.5971C43.1341 48.3231 41.4042 48.6665 39.8864 49.2619C38.3679 49.8575 37.0792 50.6989 36.1668 51.3958C35.7117 51.7435 35.3529 52.0531 35.1091 52.2747C34.8731 52.4892 34.7454 52.6205 34.7375 52.6286L34.7372 52.629L34.3779 52.9883L34.0244 52.6232L33.7186 52.3074L33.7167 52.3054L33.7167 52.3054C33.6975 52.2855 33.6746 52.2696 33.6491 52.2587C33.6237 52.2478 33.5963 52.2422 33.5687 52.2422C33.541 52.2422 33.5136 52.2478 33.4882 52.2587C33.4627 52.2696 33.4398 52.2855 33.4206 52.3054L33.4185 52.3077L33.4185 52.3077L25.7219 60.245C25.7217 60.2453 25.7214 60.2455 25.7212 60.2458C25.6753 60.2941 25.6496 60.3582 25.6496 60.4248C25.6496 60.4919 25.6755 60.5563 25.7219 60.6047L25.7645 60.6491L25.795 60.7026L25.3609 60.9506C25.795 60.7026 25.7952 60.7028 25.7953 60.7031L25.7956 60.7037L25.7964 60.7049L25.798 60.7079L25.8024 60.7159C25.8058 60.722 25.8099 60.7298 25.8148 60.7391C25.8245 60.7578 25.8369 60.7829 25.8511 60.8137C25.8791 60.8749 25.9145 60.9604 25.9468 61.0639C26.0097 61.2654 26.0703 61.564 26.0167 61.8928C25.9605 62.2371 25.7823 62.5878 25.4153 62.8658C25.0612 63.1339 24.5612 63.3124 23.8915 63.3928L55.4856 79.2558ZM55.4856 79.2558C60.9827 84.9244 66.8803 89.6379 69.0969 91.3457C69.2882 91.4937 69.4004 91.5901 69.4653 91.6597C69.458 91.6699 69.4494 91.6815 69.4392 91.6946C69.3576 91.7993 69.2311 91.9324 69.0343 92.1358L66.6624 94.5827L66.6623 94.5827L64.2884 97.0308L64.2881 97.0311C64.0917 97.234 63.9635 97.364 63.863 97.4473C63.8602 97.4497 63.8575 97.4519 63.8548 97.4541M55.4856 79.2558L63.8548 97.4541M38.1278 70.3511C38.1418 70.372 38.1565 70.3939 38.1719 70.4167C38.3436 70.671 38.5993 71.0381 38.9324 71.4854C39.5991 72.3803 40.5738 73.5931 41.8046 74.8624L41.8046 74.8624C43.0547 76.1518 44.4941 77.1796 46.0803 78.3121C46.1949 78.3939 46.3102 78.4763 46.4264 78.5594C48.1403 79.7853 49.9927 81.1446 51.8456 83.0561C57.3415 88.7252 61.9113 94.8072 63.5688 97.0929M38.1278 70.3511L63.5688 97.0929M38.1278 70.3511L38.49 69.9771L38.8271 69.629L38.4898 69.2812L34.1685 64.824L33.8095 64.4537L33.4505 64.824L31.7806 66.5463L31.7779 66.5492C31.7588 66.5692 31.7357 66.5852 31.7103 66.5961C31.6848 66.607 31.6573 66.6126 31.6296 66.6126C31.6019 66.6126 31.5745 66.607 31.549 66.5961C31.5235 66.5852 31.5005 66.5692 31.4814 66.5492L31.436 66.5017L31.3799 66.4675L31.1197 66.8944C31.3799 66.4675 31.3797 66.4673 31.3794 66.4671L31.3788 66.4668L31.3775 66.466L31.3745 66.4642L31.3666 66.4596C31.3606 66.456 31.3529 66.4516 31.3436 66.4465C31.3252 66.4363 31.3005 66.4232 31.2702 66.4084C31.21 66.379 31.1258 66.3418 31.0238 66.3078C30.8255 66.2417 30.5283 66.1769 30.1998 66.2338C29.8537 66.2938 29.5107 66.483 29.243 66.8588C28.9857 67.2199 28.8142 67.7293 28.7363 68.4145L28.7362 68.4153C28.6241 69.4166 28.4183 69.9431 28.2203 70.1959L38.1278 70.3511ZM63.5688 97.0929C63.6994 97.2725 63.7888 97.3848 63.8548 97.4541M63.5688 97.0929L63.8548 97.4541M26.3315 71.8577L26.3335 71.8597C26.3527 71.8798 26.3758 71.8957 26.4013 71.9066C26.4268 71.9175 26.4543 71.9231 26.4821 71.9231C26.5098 71.9231 26.5373 71.9175 26.5628 71.9066C26.5883 71.8957 26.6114 71.8798 26.6305 71.8598C26.6306 71.8598 26.6306 71.8598 26.6306 71.8598C26.6306 71.8598 26.6306 71.8598 26.6306 71.8598C26.6306 71.8597 26.6306 71.8597 26.6306 71.8597L26.3315 71.8577ZM26.3315 71.8577L20.5723 65.9168C20.572 65.9166 20.5717 65.9163 20.5715 65.916C20.5256 65.8677 20.5 65.8036 20.5 65.737C20.5 65.6706 20.5254 65.6068 20.5709 65.5585C21.1113 65.0064 21.6534 64.456 22.1973 63.9074M26.3315 71.8577L22.1973 63.9074M22.1973 63.9074C22.4429 63.7109 22.945 63.5078 23.8914 63.3928L22.1973 63.9074ZM52.013 52.704C52.0187 52.7039 52.0219 52.7042 52.0221 52.7044C52.0223 52.7046 52.0194 52.7046 52.013 52.704Z" stroke="#35373B"/>
<path d="M49.1117 66.8992L49.1113 66.8988C48.5543 66.3255 47.9821 65.7671 47.3953 65.2244L54.0201 58.598L54.2189 58.3992L54.1523 58.1261C53.8359 56.8281 53.8592 55.4705 54.22 54.1842C54.5808 52.8979 55.2669 51.7262 56.2122 50.7822L56.2129 50.7815C57.1565 49.8355 58.3282 49.149 59.6148 48.7883C60.6038 48.511 61.6349 48.4335 62.6486 48.5568L56.5612 54.6419L56.357 54.8461L56.4317 55.125L57.7183 59.9271L57.793 60.206L58.0718 60.2807L62.8715 61.5664L63.1503 61.6411L63.3544 61.437L69.4434 55.3481C69.5662 56.362 69.4886 57.3933 69.2115 58.3826C68.851 59.6696 68.1651 60.842 67.2199 61.7869C66.2747 62.7318 65.1021 63.4173 63.815 63.7773C62.5279 64.1374 61.1698 64.1598 59.8715 63.8425L59.5982 63.7757L59.3992 63.9747L52.3737 71.001C51.3668 69.5438 50.3313 68.157 49.1117 66.8992ZM40.0474 76.2044L40.0477 76.2047C41.2305 77.4242 42.5333 78.4655 43.9004 79.4751L35.9767 87.398L35.7779 87.5968L35.8445 87.87C36.1609 89.1685 36.1377 90.5266 35.7769 91.8135C35.4161 93.1004 34.7299 94.2727 33.7845 95.2174L33.7842 95.2176C33.0619 95.9405 32.2043 96.5139 31.2602 96.9051C30.3162 97.2963 29.3044 97.4977 28.2825 97.4977C27.2606 97.4977 26.2488 97.2963 25.3047 96.9051C24.3607 96.5139 23.5031 95.9405 22.7807 95.2176L22.7806 95.2174C19.741 92.1787 19.7404 87.2508 22.7805 84.2131L22.7809 84.2126C23.7249 83.2672 24.8967 82.581 26.1832 82.2205C27.4697 81.8599 28.8274 81.8372 30.1253 82.1544L30.3986 82.2212L30.5976 82.0222L38.3119 74.3071C38.8723 74.9558 39.4511 75.5885 40.0474 76.2044ZM29.4396 94.9982L29.7185 95.073L29.9226 94.8688L33.4365 91.3549L33.6406 91.1508L33.566 90.8721L32.2802 86.0699L32.2055 85.7908L31.9265 85.7162L27.1268 84.4321L26.8482 84.3576L26.6442 84.5614L23.1294 88.0737L22.9251 88.2778L22.9998 88.5567L24.2856 93.3581L24.3603 93.6369L24.6391 93.7117L29.4396 94.9982Z" stroke="#35373B"/>
<path fill-rule="evenodd" clip-rule="evenodd" d="M46.856 12.5728L88.8805 46.5659C90.1851 47.6212 90.3705 49.5413 89.2919 50.8267L87.3831 53.1016C86.3203 54.3681 84.4332 54.536 83.1634 53.477L46.0233 22.5001L7.82573 54.412C6.55615 55.4727 4.66756 55.3054 3.60417 54.0381L1.70196 51.7712C0.620168 50.4819 0.810345 48.5552 2.12331 47.5024L45.7041 12.5554L46.1512 12.0027L46.2718 12.1002L46.3967 12L46.856 12.5728ZM46.2663 14.6682L3.3745 49.0627C2.93684 49.4136 2.87345 50.0559 3.23405 50.4856L5.13626 52.7526C5.49072 53.175 6.12025 53.2308 6.54344 52.8772L45.8812 20.0127L46.0219 20.1812L46.1628 20.0122L84.4445 51.9411C84.8677 52.2941 85.4968 52.2382 85.851 51.816L87.7599 49.5411C88.1194 49.1127 88.0576 48.4726 87.6227 48.1209L46.2663 14.6682Z" fill="#35373B"/>
<path d="M78 39V22C78 20.8954 77.1046 20 76 20H68C66.8954 20 66 20.8954 66 22V29" stroke="#35373B" stroke-width="2"/>
</svg>
