<svg aria-hidden="true" style="position: absolute; width: 0; height: 0; overflow: hidden;" version="1.1" xmlns="http://www.w3.org/2000/svg" xmlns:xlink="http://www.w3.org/1999/xlink">
<defs>
<symbol id="icon-diagnostic" viewBox="0 0 32 32">
<path fill="#f5f5f5" style="fill: var(--color1, #f5f5f5)" d="M2.909 0h26.182v32h-26.182v-32z"></path>
<path fill="#fed4a0" stroke="#35373b" stroke-width="0.5818" stroke-miterlimit="4" stroke-linecap="butt" stroke-linejoin="miter" style="fill: var(--color2, #fed4a0); stroke: var(--color3, #35373b)" d="M7.974 12.263c0.564 0 1.021-0.459 1.021-1.026s-0.457-1.026-1.021-1.026c-0.564 0-1.021 0.459-1.021 1.026s0.457 1.026 1.021 1.026z"></path>
<path fill="#fed4a0" stroke="#35373b" stroke-width="0.5818" stroke-miterlimit="4" stroke-linecap="butt" stroke-linejoin="miter" style="fill: var(--color2, #fed4a0); stroke: var(--color3, #35373b)" d="M12.57 12.263c0.564 0 1.021-0.459 1.021-1.026s-0.457-1.026-1.021-1.026c-0.564 0-1.021 0.459-1.021 1.026s0.457 1.026 1.021 1.026z"></path>
<path fill="#fed4a0" stroke="#35373b" stroke-width="0.5818" stroke-miterlimit="4" stroke-linecap="butt" stroke-linejoin="miter" style="fill: var(--color2, #fed4a0); stroke: var(--color3, #35373b)" d="M17.167 12.263c0.564 0 1.021-0.459 1.021-1.026s-0.457-1.026-1.021-1.026c-0.564 0-1.021 0.459-1.021 1.026s0.457 1.026 1.021 1.026z"></path>
<path fill="none" stroke="#35373b" stroke-width="0.5818" stroke-miterlimit="4" stroke-linecap="butt" stroke-linejoin="miter" style="stroke: var(--color3, #35373b)" d="M7.719 2.806h9.703c1.107 0 2.007 0.902 2.007 2.018v17.957c0 1.116-0.9 2.018-2.007 2.018h-9.703c-1.107 0-2.007-0.902-2.007-2.018v-17.957c0-1.116 0.9-2.018 2.007-2.018z"></path>
<path fill="none" stroke="#35373b" stroke-width="0.5818" stroke-miterlimit="4" stroke-linecap="butt" stroke-linejoin="miter" style="stroke: var(--color3, #35373b)" d="M16.401 4.054h-7.661c-0.987 0-1.787 0.804-1.787 1.796v1.026c0 0.992 0.8 1.796 1.787 1.796h7.661c0.987 0 1.787-0.804 1.787-1.796v-1.026c0-0.992-0.8-1.796-1.787-1.796z"></path>
<path fill="#35373b" style="fill: var(--color3, #35373b)" d="M10.82 6.038c-0.096-0.104-0.258-0.109-0.361-0.013s-0.109 0.259-0.013 0.363l2.090 2.251c0.096 0.104 0.258 0.109 0.361 0.013s0.109-0.259 0.013-0.363l-2.090-2.251z"></path>
<path fill="none" stroke="#35373b" stroke-width="0.5818" stroke-miterlimit="4" stroke-linecap="butt" stroke-linejoin="miter" style="stroke: var(--color3, #35373b)" d="M12.57 20.985c1.974 0 3.575-1.608 3.575-3.591s-1.601-3.591-3.575-3.591c-1.974 0-3.575 1.608-3.575 3.591s1.601 3.591 3.575 3.591z"></path>
<path fill="#35373b" style="fill: var(--color3, #35373b)" d="M15.209 15.691c0.299-0.301 0.299-0.788 0-1.088s-0.784-0.301-1.083 0l-4.334 4.353c-0.299 0.301-0.299 0.788 0 1.088s0.784 0.301 1.083 0l4.334-4.353z"></path>
<path fill="#35373b" style="fill: var(--color3, #35373b)" d="M10.528 23.807c0.423 0 0.766-0.345 0.766-0.77s-0.343-0.77-0.766-0.77c-0.423 0-0.766 0.345-0.766 0.77s0.343 0.77 0.766 0.77z"></path>
<path fill="#35373b" style="fill: var(--color3, #35373b)" d="M15.124 23.807c0.423 0 0.766-0.345 0.766-0.77s-0.343-0.77-0.766-0.77c-0.423 0-0.766 0.345-0.766 0.77s0.343 0.77 0.766 0.77z"></path>
<path fill="#35373b" style="fill: var(--color3, #35373b)" d="M23.040 10.724c0-0.425-0.343-0.77-0.766-0.77s-0.766 0.345-0.766 0.77v5.644c0 0.425 0.343 0.77 0.766 0.77s0.766-0.345 0.766-0.77v-5.644z"></path>
<path fill="#35373b" style="fill: var(--color3, #35373b)" d="M27.126 10.724c0-0.425-0.343-0.77-0.766-0.77s-0.766 0.345-0.766 0.77v5.644c0 0.425 0.343 0.77 0.766 0.77s0.766-0.345 0.766-0.77v-5.644z"></path>
<path fill="none" stroke="#35373b" stroke-width="0.5818" stroke-miterlimit="4" stroke-linecap="round" stroke-linejoin="miter" style="stroke: var(--color3, #35373b)" d="M22.274 10.211v-2.052"></path>
<path fill="#35373b" style="fill: var(--color3, #35373b)" d="M26.615 8.107c0-0.142-0.114-0.257-0.255-0.257s-0.255 0.115-0.255 0.257h0.511zM26.615 10.467v-2.36h-0.511v2.36h0.511z"></path>
<path fill="#fed4a0" style="fill: var(--color2, #fed4a0)" d="M22.529 15.341c0-0.142-0.114-0.257-0.255-0.257s-0.255 0.115-0.255 0.257v0.513c0 0.142 0.114 0.257 0.255 0.257s0.255-0.115 0.255-0.257v-0.513z"></path>
<path fill="#fed4a0" style="fill: var(--color2, #fed4a0)" d="M26.615 15.341c0-0.142-0.114-0.257-0.255-0.257s-0.255 0.115-0.255 0.257v0.513c0 0.142 0.114 0.257 0.255 0.257s0.255-0.115 0.255-0.257v-0.513z"></path>
<path fill="#35373b" style="fill: var(--color3, #35373b)" d="M24.042 4.997c0.005-0.027 0.015-0.052 0.028-0.074 0.018-0.031 0.043-0.056 0.071-0.075 0.050-0.033 0.113-0.047 0.175-0.035 0.016 0.003 0.031 0.008 0.046 0.014l1.892 0.76c0.119 0.048 0.177 0.183 0.129 0.303s-0.183 0.177-0.303 0.129l-1.577-0.634v1.297c0 0.012-0.001 0.025-0.003 0.036 0.013 0.048 0.011 0.1-0.009 0.149-0.048 0.119-0.184 0.176-0.303 0.128l-2.273-0.923c-0.119-0.048-0.176-0.184-0.128-0.303s0.184-0.176 0.303-0.128l1.947 0.79v-1.386c-0-0.017 0.001-0.033 0.004-0.050z"></path>
<path fill="#35373b" style="fill: var(--color3, #35373b)" d="M10.783 23.037c0-0.142-0.114-0.257-0.255-0.257s-0.255 0.115-0.255 0.257v5.644c0 0.142 0.114 0.257 0.255 0.257s0.255-0.115 0.255-0.257v-5.644z"></path>
<path fill="#35373b" style="fill: var(--color3, #35373b)" d="M26.36 28.424h-15.832c-0.141 0-0.255 0.115-0.255 0.257s0.114 0.257 0.255 0.257h15.832c0.141 0 0.255-0.115 0.255-0.257s-0.114-0.257-0.255-0.257z"></path>
<path fill="#35373b" style="fill: var(--color3, #35373b)" d="M15.379 23.55c0-0.142-0.114-0.257-0.255-0.257s-0.255 0.115-0.255 0.257v3.078c0 0.142 0.114 0.257 0.255 0.257s0.255-0.115 0.255-0.257v-3.078z"></path>
<path fill="#35373b" style="fill: var(--color3, #35373b)" d="M26.615 16.881c0-0.142-0.114-0.257-0.255-0.257s-0.255 0.115-0.255 0.257v11.8c0 0.142 0.114 0.257 0.255 0.257s0.255-0.115 0.255-0.257v-11.8z"></path>
<path fill="#35373b" style="fill: var(--color3, #35373b)" d="M22.274 26.372h-7.15c-0.141 0-0.255 0.115-0.255 0.257s0.114 0.257 0.255 0.257h7.15c0.141 0 0.255-0.115 0.255-0.257s-0.114-0.257-0.255-0.257z"></path>
<path fill="#35373b" style="fill: var(--color3, #35373b)" d="M22.529 16.881c0-0.142-0.114-0.257-0.255-0.257s-0.255 0.115-0.255 0.257v9.748c0 0.142 0.114 0.257 0.255 0.257s0.255-0.115 0.255-0.257v-9.748z"></path>
</symbol>
<symbol id="icon-emergency" viewBox="0 0 32 32">
<path fill="#f5f5f5" style="fill: var(--color1, #f5f5f5)" d="M2.909 0h26.182v32h-26.182v-32z"></path>
<path fill="#35373b" style="fill: var(--color3, #35373b)" d="M20.762 26.182c0.119-0.692 0.184-1.423 0.184-2.182 0-2.278-0.58-4.312-1.487-5.759-0.912-1.455-2.099-2.241-3.313-2.241s-2.4 0.786-3.313 2.241c-0.907 1.447-1.487 3.481-1.487 5.759 0 0.759 0.064 1.49 0.184 2.182h-0.59c-0.114-0.697-0.175-1.428-0.175-2.182 0-4.74 2.409-8.582 5.382-8.582s5.382 3.842 5.382 8.582c0 0.754-0.061 1.485-0.175 2.182h-0.59z"></path>
<path fill="none" stroke="#35373b" stroke-width="0.2909" stroke-miterlimit="4" stroke-linecap="butt" stroke-linejoin="miter" style="stroke: var(--color3, #35373b)" d="M10.327 27.345c0-0.562 0.456-1.018 1.018-1.018h9.891c0.562 0 1.018 0.456 1.018 1.018 0 0.241-0.195 0.436-0.436 0.436h-11.055c-0.241 0-0.436-0.195-0.436-0.436z"></path>
<path fill="none" stroke="#35373b" stroke-width="0.2909" stroke-miterlimit="4" stroke-linecap="butt" stroke-linejoin="miter" style="stroke: var(--color3, #35373b)" d="M8.582 29.382c0 0.241 0.195 0.436 0.436 0.436h14.255c0.241 0 0.436-0.195 0.436-0.436 0-0.884-0.716-1.6-1.6-1.6h-11.927c-0.884 0-1.6 0.716-1.6 1.6z"></path>
<path fill="#35373b" style="fill: var(--color3, #35373b)" d="M15.798 22.312l-0.126-3.344h0.789l-0.133 3.344h-0.531zM16.070 23.896c-0.13 0-0.24-0.044-0.328-0.133s-0.133-0.193-0.133-0.314c0-0.13 0.044-0.237 0.133-0.321s0.198-0.126 0.328-0.126c0.13 0 0.237 0.042 0.321 0.126s0.126 0.191 0.126 0.321c0 0.121-0.042 0.226-0.126 0.314s-0.191 0.133-0.321 0.133z"></path>
<path fill="none" stroke="#fed4a0" stroke-width="0.5818" stroke-miterlimit="4" stroke-linecap="round" stroke-linejoin="miter" style="stroke: var(--color2, #fed4a0)" d="M8.195 15.468l1.646 1.646"></path>
<path fill="none" stroke="#fed4a0" stroke-width="0.5818" stroke-miterlimit="4" stroke-linecap="round" stroke-linejoin="miter" style="stroke: var(--color2, #fed4a0)" d="M22.982 22.691h2.327"></path>
<path fill="none" stroke="#fed4a0" stroke-width="0.5818" stroke-miterlimit="4" stroke-linecap="round" stroke-linejoin="miter" style="stroke: var(--color2, #fed4a0)" d="M16.291 13.964v-2.327"></path>
<path fill="none" stroke="#fed4a0" stroke-width="0.5818" stroke-miterlimit="4" stroke-linecap="round" stroke-linejoin="miter" style="stroke: var(--color2, #fed4a0)" d="M22.45 17.114l1.646-1.646"></path>
<path fill="none" stroke="#fed4a0" stroke-width="0.5818" stroke-miterlimit="4" stroke-linecap="round" stroke-linejoin="miter" style="stroke: var(--color2, #fed4a0)" d="M6.982 22.691h2.327"></path>
<path fill="#35373b" style="fill: var(--color3, #35373b)" d="M21.527 7.692v-1.292c0-0.482 0.391-0.873 0.873-0.873h2.327c0.482 0 0.873 0.391 0.873 0.873v4.586l3.165 2.56c0.38 0.307 0.433 0.866 0.12 1.239l-0.555 0.662c-0.309 0.368-0.858 0.417-1.228 0.109l-10.804-9.011-11.112 9.283c-0.369 0.309-0.919 0.26-1.228-0.109l-0.553-0.659c-0.315-0.375-0.259-0.936 0.123-1.242l12.678-10.166 0.13-0.161 0.035 0.028 0.036-0.029 0.134 0.167 4.987 4.034zM22.109 8.162l2.909 2.353v-4.115c0-0.161-0.13-0.291-0.291-0.291h-2.327c-0.161 0-0.291 0.13-0.291 0.291v1.762zM25.018 11.264l-8.65-6.997-12.478 10.006c-0.127 0.102-0.146 0.289-0.041 0.414l0.553 0.659c0.103 0.123 0.286 0.139 0.409 0.036l11.444-9.561 0.041 0.049 0.041-0.049 11.136 9.288c0.123 0.103 0.306 0.086 0.409-0.036l0.555-0.662c0.105-0.125 0.087-0.311-0.040-0.413l-3.28-2.653h-0.101v-0.082z"></path>
</symbol>
<symbol id="icon-exit" viewBox="0 0 32 32">
<path fill="#f5f5f5" style="fill: var(--color1, #f5f5f5)" d="M2.909 0h26.182v32h-26.182v-32z"></path>
<path fill="none" stroke="#35373b" stroke-width="0.2909" stroke-miterlimit="4" stroke-linecap="butt" stroke-linejoin="miter" style="stroke: var(--color3, #35373b)" d="M13.066 21.866v2.057h-1.010v-2.808l3.281-1.394 0.487-0.058c0.398 0.003 0.738 0.229 0.97 0.588 0 0 0 0 0 0l0.66 1.035c0.53 0.941 1.558 1.584 2.782 1.631v1.003c-1.332-0.042-2.542-0.651-3.333-1.565l-0.195-0.225-0.458 2.327 1.376 1.313v4.697h-1.010v-3.844l-1.602-1.521-0.672 2.976-4.285-0.853 0.205-1.023 3.196 0.655 1.119-5.687-1.51 0.596v0.099zM9.745 13.818h12.8v16.65h-1.249v-15.401h-10.302v10.062l-1.249-0.262v-11.049zM16.792 19.049c-0.635 0-1.156-0.527-1.156-1.164 0-0.307 0.122-0.601 0.339-0.817s0.511-0.339 0.817-0.339c0.644 0 1.164 0.521 1.164 1.156 0 0.636-0.521 1.164-1.164 1.164z"></path>
<path fill="#35373b" style="fill: var(--color3, #35373b)" d="M21.527 7.692v-1.292c0-0.482 0.391-0.873 0.873-0.873h2.327c0.482 0 0.873 0.391 0.873 0.873v4.586l3.165 2.56c0.38 0.307 0.433 0.866 0.12 1.239l-0.555 0.662c-0.309 0.368-0.858 0.417-1.228 0.109l-10.804-9.011-11.112 9.283c-0.369 0.309-0.919 0.26-1.228-0.109l-0.553-0.659c-0.315-0.375-0.259-0.936 0.123-1.242l12.678-10.166 0.13-0.161 0.035 0.028 0.036-0.029 0.134 0.167 4.987 4.034zM22.109 8.162l2.909 2.353v-4.115c0-0.161-0.13-0.291-0.291-0.291h-2.327c-0.161 0-0.291 0.13-0.291 0.291v1.762zM25.018 11.264l-8.65-6.997-12.478 10.006c-0.127 0.102-0.146 0.289-0.041 0.414l0.553 0.659c0.103 0.123 0.286 0.139 0.409 0.036l11.444-9.561 0.041 0.049 0.041-0.049 11.137 9.288c0.123 0.103 0.306 0.086 0.409-0.036l0.555-0.662c0.105-0.125 0.087-0.311-0.040-0.413l-3.28-2.653h-0.101v-0.082z"></path>
</symbol>
<symbol id="icon-fans" viewBox="0 0 32 32">
<path fill="#f5f5f5" style="fill: var(--color1, #f5f5f5)" d="M2.909 0h26.182v32h-26.182v-32z"></path>
<path fill="none" stroke="#35373b" stroke-width="0.5818" stroke-miterlimit="4" stroke-linecap="butt" stroke-linejoin="miter" style="stroke: var(--color3, #35373b)" d="M24.727 21.527c0-4.82-3.907-8.727-8.727-8.727s-8.727 3.907-8.727 8.727c0 4.82 3.907 8.727 8.727 8.727s8.727-3.907 8.727-8.727z"></path>
<path fill="none" stroke="#35373b" stroke-width="0.2909" stroke-miterlimit="4" stroke-linecap="butt" stroke-linejoin="miter" style="stroke: var(--color3, #35373b)" d="M18.618 19.345c0.436-0.291 0.785-1.484 0.436-2.182s-1.891-1.163-2.182-1.309M13.369 23.624c-0.436 0.291-0.785 1.484-0.436 2.182s1.891 1.163 2.182 1.309M13.855 18.86c-0.291-0.436-1.484-0.785-2.182-0.436s-1.164 1.89-1.309 2.182M18.133 24.109c0.291 0.436 1.484 0.785 2.182 0.436s1.163-1.89 1.309-2.182M17.745 20.218c1.309-1.745 0-3.055-2.182-4.364-1.349-0.809 1.745-1.309 3.927 0.436 1.636 1.309 0.873 2.182-1.745 4.8v-0.873zM14.241 22.751c-1.309 1.745 0 3.055 2.182 4.364 1.349 0.809-1.745 1.309-3.927-0.436-1.636-1.309-0.873-2.182 1.745-4.8v0.873zM14.728 19.733c-1.745-1.309-3.055 0-4.364 2.182-0.81 1.349-1.309-1.745 0.436-3.927 1.309-1.636 2.182-0.873 4.8 1.745h-0.873zM17.26 23.236c1.745 1.309 3.055 0 4.364-2.182 0.809-1.349 1.309 1.745-0.436 3.927-1.309 1.637-2.182 0.873-4.8-1.745h0.873z"></path>
<path fill="#fed4a0" style="fill: var(--color2, #fed4a0)" d="M17.164 21.382c0 0.562-0.456 1.018-1.018 1.018s-1.018-0.456-1.018-1.018c0-0.562 0.456-1.018 1.018-1.018s1.018 0.456 1.018 1.018z"></path>
<path fill="#35373b" style="fill: var(--color3, #35373b)" d="M21.527 7.692v-1.292c0-0.482 0.391-0.873 0.873-0.873h2.327c0.482 0 0.873 0.391 0.873 0.873v4.586l3.165 2.56c0.38 0.307 0.433 0.866 0.12 1.239l-0.555 0.662c-0.309 0.368-0.858 0.417-1.228 0.109l-10.804-9.011-11.112 9.283c-0.369 0.309-0.919 0.26-1.228-0.109l-0.553-0.659c-0.315-0.375-0.259-0.936 0.123-1.242l12.678-10.166 0.13-0.161 0.035 0.028 0.036-0.029 0.134 0.167 4.987 4.034zM22.109 8.162l2.909 2.353v-4.115c0-0.161-0.13-0.291-0.291-0.291h-2.327c-0.161 0-0.291 0.13-0.291 0.291v1.762zM25.018 11.264l-8.65-6.997-12.478 10.006c-0.127 0.102-0.146 0.289-0.041 0.414l0.553 0.659c0.103 0.123 0.286 0.139 0.409 0.036l11.444-9.561 0.041 0.049 0.041-0.049 11.136 9.288c0.123 0.103 0.306 0.086 0.409-0.036l0.555-0.662c0.105-0.125 0.087-0.311-0.040-0.413l-3.28-2.653h-0.101v-0.082z"></path>
</symbol>
<symbol id="icon-heated" viewBox="0 0 32 32">
<path fill="#f5f5f5" style="fill: var(--color1, #f5f5f5)" d="M2.909 0h26.182v32h-26.182v-32z"></path>
<path fill="none" stroke="#35373b" stroke-width="0.5818" stroke-miterlimit="4" stroke-linecap="butt" stroke-linejoin="miter" style="stroke: var(--color3, #35373b)" d="M6.109 14.836v13.382c0 0.643 0.521 1.164 1.164 1.164h18.036c0.643 0 1.164-0.521 1.164-1.164v-13.382"></path>
<path fill="none" stroke="#35373b" stroke-width="0.5818" stroke-miterlimit="4" stroke-linecap="round" stroke-linejoin="miter" style="stroke: var(--color3, #35373b)" d="M3.782 29.527h24.727"></path>
<path fill="none" stroke="#35373b" stroke-width="0.5818" stroke-miterlimit="4" stroke-linecap="butt" stroke-linejoin="miter" style="stroke: var(--color3, #35373b)" d="M25.309 11.345v-4.945c0-0.321-0.26-0.582-0.582-0.582h-2.327c-0.321 0-0.582 0.26-0.582 0.582v2.036"></path>
<path fill="#35373b" style="fill: var(--color3, #35373b)" d="M16.54 3.658l12.225 9.889c0.38 0.307 0.433 0.866 0.12 1.239l-0.555 0.662c-0.309 0.368-0.858 0.417-1.228 0.109l-10.804-9.011-11.112 9.283c-0.369 0.309-0.919 0.26-1.228-0.109l-0.553-0.659c-0.315-0.375-0.259-0.936 0.123-1.242l12.678-10.166 0.13-0.161 0.035 0.028 0.036-0.029 0.134 0.167zM16.368 4.267l-12.478 10.006c-0.127 0.102-0.146 0.289-0.041 0.414l0.553 0.659c0.103 0.123 0.286 0.139 0.409 0.036l11.444-9.561 0.041 0.049 0.041-0.049 11.136 9.288c0.123 0.103 0.306 0.086 0.409-0.036l0.555-0.662c0.105-0.125 0.087-0.311-0.040-0.413l-12.031-9.732z"></path>
<path fill="#fed4a0" style="fill: var(--color2, #fed4a0)" d="M19.003 25.438v-0c-0.001-0.83-0.331-1.627-0.918-2.214s-1.383-0.917-2.214-0.918h-0c-0.762 0.001-1.492 0.304-2.031 0.843s-0.842 1.269-0.843 2.031v0c0.001 0.693 0.277 1.358 0.767 1.848s1.155 0.766 1.848 0.767h0c0.625-0.001 1.224-0.249 1.665-0.691s0.69-1.041 0.691-1.665v-0c-0.001-0.556-0.222-1.089-0.615-1.483s-0.927-0.614-1.483-0.615h-0c-0.488 0.001-0.955 0.194-1.3 0.539s-0.539 0.812-0.539 1.3v0c0 0.419 0.167 0.821 0.463 1.117s0.698 0.463 1.117 0.463h0c0.174 0 0.345-0.034 0.506-0.101s0.306-0.164 0.429-0.287c0.123-0.123 0.22-0.268 0.287-0.429s0.101-0.332 0.101-0.506c0-0.282-0.112-0.553-0.311-0.752s-0.47-0.311-0.752-0.311c-0.213 0-0.418 0.085-0.569 0.236s-0.236 0.356-0.236 0.569c0 0.145 0.058 0.284 0.16 0.386s0.241 0.16 0.386 0.16c0.076 0 0.149-0.030 0.203-0.084s0.084-0.127 0.084-0.203v-0.029h-0.029c-0.061 0-0.119-0.024-0.162-0.067s-0.067-0.101-0.067-0.162c0-0.061 0.024-0.119 0.067-0.162s0.101-0.067 0.162-0.067c0.129 0 0.254 0.051 0.345 0.143s0.143 0.216 0.143 0.345c0 0.198-0.079 0.388-0.219 0.528s-0.33 0.219-0.528 0.219c-0.267 0-0.522-0.106-0.711-0.294s-0.294-0.444-0.294-0.711c0-0.335 0.133-0.657 0.37-0.894s0.558-0.37 0.894-0.37c0.404 0 0.791 0.161 1.076 0.446s0.446 0.672 0.446 1.076c-0.001 0.472-0.188 0.925-0.522 1.259s-0.787 0.522-1.259 0.522c-0.541-0.001-1.059-0.216-1.442-0.598s-0.597-0.901-0.598-1.442c0.001-0.609 0.243-1.193 0.674-1.624s1.015-0.673 1.624-0.674c0.678 0.001 1.328 0.27 1.807 0.75s0.749 1.129 0.75 1.807c-0.001 0.746-0.298 1.462-0.826 1.99s-1.243 0.825-1.99 0.826c-0.815-0.001-1.596-0.325-2.173-0.901s-0.9-1.358-0.901-2.173c0.001-0.884 0.352-1.731 0.977-2.355s1.472-0.976 2.355-0.977c0.952 0.001 1.865 0.38 2.538 1.053s1.052 1.586 1.053 2.538c0 0.061-0.024 0.119-0.067 0.162s-0.101 0.067-0.162 0.067c-0.061 0-0.119-0.024-0.162-0.067s-0.067-0.101-0.067-0.162z"></path>
<path fill="none" stroke="#35373b" stroke-width="0.5818" stroke-miterlimit="4" stroke-linecap="butt" stroke-linejoin="miter" style="stroke: var(--color3, #35373b)" d="M6.4 20.655h20.073"></path>
<path fill="#35373b" style="fill: var(--color3, #35373b)" d="M10.388 14.34c-0.114-0.114-0.298-0.114-0.411 0l-1.851 1.851c-0.114 0.114-0.114 0.298 0 0.411s0.298 0.114 0.411 0l1.646-1.646 1.646 1.646c0.114 0.114 0.298 0.114 0.411 0s0.114-0.298 0-0.411l-1.851-1.851zM10.473 19.2v-4.655h-0.582v4.655h0.582z"></path>
<path fill="#35373b" style="fill: var(--color3, #35373b)" d="M16.206 14.34c-0.114-0.114-0.298-0.114-0.411 0l-1.851 1.851c-0.114 0.114-0.114 0.298 0 0.411s0.298 0.114 0.411 0l1.646-1.646 1.646 1.646c0.114 0.114 0.298 0.114 0.411 0s0.114-0.298 0-0.411l-1.851-1.851zM16.291 19.2v-4.655h-0.582v4.655h0.582z"></path>
<path fill="#35373b" style="fill: var(--color3, #35373b)" d="M22.024 14.34c-0.114-0.114-0.298-0.114-0.411 0l-1.851 1.851c-0.114 0.114-0.114 0.298 0 0.411s0.298 0.114 0.411 0l1.646-1.646 1.646 1.646c0.114 0.114 0.298 0.114 0.411 0s0.114-0.298 0-0.411l-1.851-1.851zM22.109 19.2v-4.655h-0.582v4.655h0.582z"></path>
</symbol>
<symbol id="icon-indoor" viewBox="0 0 32 32">
<path fill="#f5f5f5" style="fill: var(--color1, #f5f5f5)" d="M2.909 0h26.182v32h-26.182v-32z"></path>
<path fill="none" stroke="#35373b" stroke-width="0.5818" stroke-miterlimit="4" stroke-linecap="butt" stroke-linejoin="miter" style="stroke: var(--color3, #35373b)" d="M6.109 14.836v13.382c0 0.643 0.521 1.164 1.164 1.164h18.036c0.643 0 1.164-0.521 1.164-1.164v-13.382"></path>
<path fill="none" stroke="#35373b" stroke-width="0.5818" stroke-miterlimit="4" stroke-linecap="round" stroke-linejoin="miter" style="stroke: var(--color3, #35373b)" d="M3.782 29.527h24.727"></path>
<path fill="none" stroke="#35373b" stroke-width="0.5818" stroke-miterlimit="4" stroke-linecap="butt" stroke-linejoin="miter" style="stroke: var(--color3, #35373b)" d="M25.309 11.345v-4.945c0-0.321-0.26-0.582-0.582-0.582h-2.327c-0.321 0-0.582 0.26-0.582 0.582v2.036"></path>
<path fill="#35373b" style="fill: var(--color3, #35373b)" d="M16.54 3.658l12.225 9.889c0.38 0.307 0.433 0.866 0.12 1.239l-0.555 0.662c-0.309 0.368-0.858 0.417-1.228 0.109l-10.804-9.011-11.112 9.283c-0.369 0.309-0.919 0.26-1.228-0.109l-0.553-0.659c-0.315-0.375-0.259-0.936 0.123-1.242l12.678-10.166 0.13-0.161 0.035 0.028 0.036-0.029 0.134 0.167zM16.368 4.267l-12.478 10.006c-0.127 0.102-0.146 0.289-0.041 0.414l0.553 0.659c0.103 0.123 0.286 0.139 0.409 0.036l11.444-9.561 0.041 0.049 0.041-0.049 11.136 9.288c0.123 0.103 0.306 0.086 0.409-0.036l0.555-0.662c0.105-0.125 0.087-0.311-0.040-0.413l-12.031-9.732z"></path>
<path fill="#fed4a0" style="fill: var(--color2, #fed4a0)" d="M14.243 15.167c0 0.99 0.803 1.793 1.793 1.793s1.793-0.803 1.793-1.793h-3.585z"></path>
<path fill="#35373b" style="fill: var(--color3, #35373b)" d="M14.243 15.167v-0.211h-0.211v0.211h0.211zM17.829 15.167h0.211v-0.211h-0.211v0.211zM16.036 16.749c-0.874 0-1.582-0.708-1.582-1.582h-0.422c0 1.107 0.897 2.004 2.004 2.004v-0.422zM17.618 15.167c0 0.874-0.708 1.582-1.582 1.582v0.422c1.107 0 2.004-0.897 2.004-2.004h-0.422zM17.829 14.956h-3.585v0.422h3.585v-0.422z"></path>
</symbol>
<symbol id="icon-network" viewBox="0 0 32 32">
<path fill="#f5f5f5" style="fill: var(--color1, #f5f5f5)" d="M2.909 0h26.182v32h-26.182v-32z"></path>
<path fill="none" stroke="#35373b" stroke-width="0.5818" stroke-miterlimit="4" stroke-linecap="butt" stroke-linejoin="miter" style="stroke: var(--color3, #35373b)" d="M6.109 14.836v13.382c0 0.643 0.521 1.164 1.164 1.164h18.036c0.643 0 1.164-0.521 1.164-1.164v-13.382"></path>
<path fill="none" stroke="#35373b" stroke-width="0.5818" stroke-miterlimit="4" stroke-linecap="round" stroke-linejoin="miter" style="stroke: var(--color3, #35373b)" d="M3.782 29.527h24.727"></path>
<path fill="none" stroke="#35373b" stroke-width="0.5818" stroke-miterlimit="4" stroke-linecap="butt" stroke-linejoin="miter" style="stroke: var(--color3, #35373b)" d="M25.309 11.345v-4.945c0-0.321-0.26-0.582-0.582-0.582h-2.327c-0.321 0-0.582 0.26-0.582 0.582v2.036"></path>
<path fill="#35373b" style="fill: var(--color3, #35373b)" d="M16.54 3.658l12.225 9.889c0.38 0.307 0.433 0.866 0.12 1.239l-0.555 0.662c-0.309 0.368-0.858 0.417-1.228 0.109l-10.804-9.011-11.112 9.283c-0.369 0.309-0.919 0.26-1.228-0.109l-0.553-0.659c-0.315-0.375-0.259-0.936 0.123-1.242l12.678-10.166 0.13-0.161 0.035 0.028 0.036-0.029 0.134 0.167zM16.368 4.267l-12.478 10.006c-0.127 0.102-0.146 0.289-0.041 0.414l0.553 0.659c0.103 0.123 0.286 0.139 0.409 0.036l11.444-9.561 0.041 0.049 0.041-0.049 11.136 9.288c0.123 0.103 0.306 0.086 0.409-0.036l0.555-0.662c0.105-0.125 0.087-0.311-0.040-0.413l-12.031-9.732z"></path>
<path fill="#fed4a0" style="fill: var(--color2, #fed4a0)" d="M16 19.2h-0c-0.397 0-0.778 0.076-1.142 0.229-0.341 0.143-0.645 0.342-0.912 0.596l-0.662-0.678c0.357-0.345 0.762-0.61 1.216-0.797 0.476-0.196 0.976-0.295 1.5-0.295s1.025 0.1 1.504 0.299c0.457 0.19 0.861 0.46 1.212 0.81l-0.662 0.662c-0.267-0.255-0.571-0.454-0.912-0.596-0.364-0.152-0.744-0.228-1.141-0.229zM16 16.073h0c0.815 0 1.595 0.154 2.341 0.463 0.724 0.299 1.364 0.727 1.92 1.282l-0.661 0.661c-0.473-0.461-1.014-0.817-1.622-1.069-0.63-0.261-1.29-0.392-1.978-0.392h-0c-0.688 0-1.348 0.131-1.978 0.392-0.608 0.252-1.149 0.609-1.622 1.069l-0.661-0.661c0.557-0.556 1.197-0.983 1.921-1.283 0.746-0.309 1.526-0.463 2.34-0.462zM17.178 20.892l-1.178 1.186-1.178-1.186c0.15-0.139 0.32-0.247 0.511-0.325 0.212-0.087 0.435-0.131 0.668-0.131s0.456 0.044 0.668 0.131c0.19 0.078 0.36 0.186 0.51 0.325z"></path>
</symbol>
<symbol id="icon-outdoor" viewBox="0 0 32 32">
<path fill="#f5f5f5" style="fill: var(--color1, #f5f5f5)" d="M2.909 0h26.182v32h-26.182v-32z"></path>
<path fill="none" stroke="#35373b" stroke-width="0.5818" stroke-miterlimit="4" stroke-linecap="butt" stroke-linejoin="miter" style="stroke: var(--color3, #35373b)" d="M6.109 14.836v13.382c0 0.643 0.521 1.164 1.164 1.164h18.036c0.643 0 1.164-0.521 1.164-1.164v-13.382"></path>
<path fill="none" stroke="#35373b" stroke-width="0.5818" stroke-miterlimit="4" stroke-linecap="round" stroke-linejoin="miter" style="stroke: var(--color3, #35373b)" d="M3.782 29.527h24.727"></path>
<path fill="none" stroke="#35373b" stroke-width="0.5818" stroke-miterlimit="4" stroke-linecap="butt" stroke-linejoin="miter" style="stroke: var(--color3, #35373b)" d="M25.309 11.345v-4.945c0-0.321-0.26-0.582-0.582-0.582h-2.327c-0.321 0-0.582 0.26-0.582 0.582v2.036"></path>
<path fill="#35373b" style="fill: var(--color3, #35373b)" d="M16.54 3.658l12.225 9.889c0.38 0.307 0.433 0.866 0.12 1.239l-0.555 0.662c-0.309 0.368-0.858 0.417-1.228 0.109l-10.804-9.011-11.112 9.283c-0.369 0.309-0.919 0.26-1.228-0.109l-0.553-0.659c-0.315-0.375-0.259-0.936 0.123-1.242l12.678-10.166 0.13-0.161 0.035 0.028 0.036-0.029 0.134 0.167zM16.368 4.267l-12.478 10.006c-0.127 0.102-0.146 0.289-0.041 0.414l0.553 0.659c0.103 0.123 0.286 0.139 0.409 0.036l11.444-9.561 0.041 0.049 0.041-0.049 11.136 9.288c0.123 0.103 0.306 0.086 0.409-0.036l0.555-0.662c0.105-0.125 0.087-0.311-0.040-0.413l-12.031-9.732z"></path>
<path fill="#fed4a0" stroke="#35373b" stroke-width="0.3491" stroke-miterlimit="4" stroke-linecap="butt" stroke-linejoin="miter" style="fill: var(--color2, #fed4a0); stroke: var(--color3, #35373b)" d="M9.775 5.004c0 1.35-1.094 2.444-2.444 2.444s-2.444-1.094-2.444-2.444c0-1.35 1.094-2.444 2.444-2.444s2.444 1.094 2.444 2.444z"></path>
<path fill="none" stroke="#35373b" stroke-width="0.3491" stroke-miterlimit="4" stroke-linecap="round" stroke-linejoin="miter" style="stroke: var(--color3, #35373b)" d="M3.2 5.004h0.873"></path>
<path fill="none" stroke="#35373b" stroke-width="0.3491" stroke-miterlimit="4" stroke-linecap="round" stroke-linejoin="miter" style="stroke: var(--color3, #35373b)" d="M4.196 2.146l0.617 0.617"></path>
<path fill="none" stroke="#35373b" stroke-width="0.3491" stroke-miterlimit="4" stroke-linecap="round" stroke-linejoin="miter" style="stroke: var(--color3, #35373b)" d="M10.589 5.004h0.873"></path>
<path fill="none" stroke="#35373b" stroke-width="0.3491" stroke-miterlimit="4" stroke-linecap="round" stroke-linejoin="miter" style="stroke: var(--color3, #35373b)" d="M9.942 2.937l0.617-0.617"></path>
<path fill="none" stroke="#35373b" stroke-width="0.3491" stroke-miterlimit="4" stroke-linecap="round" stroke-linejoin="miter" style="stroke: var(--color3, #35373b)" d="M7.331 1.745v-0.873"></path>
<path fill="none" stroke="#35373b" stroke-width="0.3491" stroke-miterlimit="4" stroke-linecap="butt" stroke-linejoin="miter" style="stroke: var(--color3, #35373b)" d="M6.284 7.447h2.095c0.096 0 0.175 0.078 0.175 0.175v1.745c0 0.096-0.078 0.175-0.175 0.175h-2.095c-0.096 0-0.175-0.078-0.175-0.175v-1.745c0-0.096 0.078-0.175 0.175-0.175z"></path>
<path fill="none" stroke="#35373b" stroke-width="0.3491" stroke-miterlimit="4" stroke-linecap="butt" stroke-linejoin="miter" style="stroke: var(--color3, #35373b)" d="M6.284 8.145h2.095c0.096 0 0.175 0.078 0.175 0.175v0.349c0 0.096-0.078 0.175-0.175 0.175h-2.095c-0.096 0-0.175-0.078-0.175-0.175v-0.349c0-0.096 0.078-0.175 0.175-0.175z"></path>
<path fill="none" stroke="#35373b" stroke-width="0.3491" stroke-miterlimit="4" stroke-linecap="butt" stroke-linejoin="miter" style="stroke: var(--color3, #35373b)" d="M6.982 9.542h0.698c0.096 0 0.175 0.078 0.175 0.175v0.349c0 0.096-0.078 0.175-0.175 0.175h-0.698c-0.096 0-0.175-0.078-0.175-0.175v-0.349c0-0.096 0.078-0.175 0.175-0.175z"></path>
</symbol>
<symbol id="icon-panel" viewBox="0 0 32 32">
<path fill="#f5f5f5" style="fill: var(--color1, #f5f5f5)" d="M2.909 0h26.182v32h-26.182v-32z"></path>
<path fill="none" stroke="#35373b" stroke-width="0.5818" stroke-miterlimit="4" stroke-linecap="butt" stroke-linejoin="miter" style="stroke: var(--color3, #35373b)" d="M7.564 2.618h16.873c1.125 0 2.036 0.912 2.036 2.036v22.691c0 1.125-0.912 2.036-2.036 2.036h-16.873c-1.125 0-2.036-0.912-2.036-2.036v-22.691c0-1.125 0.912-2.036 2.036-2.036z"></path>
<path fill="#35373b" style="fill: var(--color3, #35373b)" d="M16.519 8.427c-0.215-0.426-0.823-0.426-1.039 0l-3.399 6.728c-0.196 0.387 0.086 0.844 0.519 0.844h6.798c0.434 0 0.715-0.457 0.519-0.844l-3.399-6.728zM14.961 8.165c0.43-0.852 1.647-0.852 2.077 0l3.399 6.728c0.391 0.774-0.172 1.688-1.039 1.688h-6.798c-0.867 0-1.43-0.914-1.039-1.688l3.399-6.728zM16.712 12.799c-0.033-0.011-0.067-0.016-0.101-0.015l-1.018-0 0.674-1.985c0.052-0.152-0.030-0.317-0.182-0.369s-0.317 0.030-0.369 0.182l-0.807 2.375c-0.052 0.152 0.030 0.317 0.182 0.369 0.050 0.017 0.102 0.020 0.151 0.010h0.972l-0.537 1.598c-0.051 0.152 0.031 0.317 0.183 0.368s0.317-0.031 0.368-0.183l0.667-1.982c0.051-0.152-0.031-0.317-0.183-0.368z"></path>
<path fill="#35373b" style="fill: var(--color3, #35373b)" d="M11.927 19.491h8.145c0.161 0 0.291 0.13 0.291 0.291s-0.13 0.291-0.291 0.291h-8.145c-0.161 0-0.291-0.13-0.291-0.291s0.13-0.291 0.291-0.291z"></path>
<path fill="#35373b" style="fill: var(--color3, #35373b)" d="M11.927 21.236h8.145c0.161 0 0.291 0.13 0.291 0.291s-0.13 0.291-0.291 0.291h-8.145c-0.161 0-0.291-0.13-0.291-0.291s0.13-0.291 0.291-0.291z"></path>
<path fill="#35373b" style="fill: var(--color3, #35373b)" d="M11.927 22.982h8.145c0.161 0 0.291 0.13 0.291 0.291s-0.13 0.291-0.291 0.291h-8.145c-0.161 0-0.291-0.13-0.291-0.291s0.13-0.291 0.291-0.291z"></path>
<path fill="#fed4a0" stroke="#35373b" stroke-width="0.5818" stroke-miterlimit="4" stroke-linecap="butt" stroke-linejoin="miter" style="fill: var(--color2, #fed4a0); stroke: var(--color3, #35373b)" d="M24.436 9.6c0.482 0 0.873 0.391 0.873 0.873v1.745c0 0.482-0.391 0.873-0.873 0.873s-0.873-0.391-0.873-0.873v-1.745c0-0.482 0.391-0.873 0.873-0.873z"></path>
<path fill="#fed4a0" stroke="#35373b" stroke-width="0.5818" stroke-miterlimit="4" stroke-linecap="butt" stroke-linejoin="miter" style="fill: var(--color2, #fed4a0); stroke: var(--color3, #35373b)" d="M24.436 19.491c0.482 0 0.873 0.391 0.873 0.873v1.745c0 0.482-0.391 0.873-0.873 0.873s-0.873-0.391-0.873-0.873v-1.745c0-0.482 0.391-0.873 0.873-0.873z"></path>
<path fill="#35373b" style="fill: var(--color3, #35373b)" d="M22.4 5.527c0.964 0 1.745 0.781 1.745 1.745v2.327h0.582v-2.327c0-1.285-1.042-2.327-2.327-2.327h-12.8c-1.285 0-2.327 1.042-2.327 2.327v17.455c0 1.285 1.042 2.327 2.327 2.327h12.8c1.285 0 2.327-1.042 2.327-2.327v-1.455h-0.582v1.455c0 0.964-0.781 1.745-1.745 1.745h-12.8c-0.964 0-1.745-0.781-1.745-1.745v-17.455c0-0.964 0.781-1.745 1.745-1.745h12.8zM24.727 19.2h-0.582v-6.109h0.582v6.109z"></path>
</symbol>
<symbol id="icon-phone" viewBox="0 0 32 32">
<path fill="#fed4a0" style="fill: var(--color2, #fed4a0)" d="M28.758 21.513l-6.669-3.387c-0.345-0.167-0.722-0.235-1.096-0.195s-0.733 0.183-1.046 0.419c-0.037 0.028-0.072 0.057-0.106 0.090l-3.436 3.32c-2.177-1.198-4.425-3.726-5.482-6.162l2.934-3.954c0.028-0.040 0.055-0.080 0.080-0.123 0.204-0.353 0.328-0.758 0.36-1.178s-0.027-0.843-0.174-1.231v-0.019l-2.989-7.55c-0.194-0.507-0.527-0.929-0.95-1.203s-0.913-0.387-1.397-0.32c-1.913 0.285-3.669 1.35-4.94 2.995s-1.97 3.759-1.966 5.946c0 12.704 9.12 23.040 20.33 23.040 1.929 0.004 3.794-0.788 5.246-2.229s2.391-3.431 2.643-5.599c0.059-0.548-0.040-1.103-0.282-1.582s-0.614-0.857-1.061-1.077zM22.212 29.44c-4.791-0.006-9.384-2.166-12.772-6.005s-5.293-9.045-5.299-14.475c-0.005-1.562 0.491-3.074 1.397-4.251s2.159-1.942 3.526-2.149c-0.001 0.006-0.001 0.013 0 0.019l2.965 7.52-2.918 3.958c-0.030 0.039-0.056 0.080-0.080 0.123-0.212 0.369-0.337 0.795-0.362 1.235s0.051 0.88 0.221 1.277c1.279 2.965 3.915 5.93 6.559 7.378 0.353 0.19 0.743 0.273 1.133 0.241s0.765-0.178 1.091-0.424c0.036-0.028 0.071-0.057 0.104-0.089l3.432-3.319 6.635 3.368h0.015c-0.181 1.551-0.853 2.974-1.893 4.003s-2.374 1.594-3.754 1.589z"></path>
</symbol>
<symbol id="icon-pot" viewBox="0 0 32 32">
<path fill="#f5f5f5" style="fill: var(--color1, #f5f5f5)" d="M2.909 0h26.182v32h-26.182v-32z"></path>
<path fill="#fed4a0" stroke="#35373b" stroke-width="0.5818" stroke-miterlimit="4" stroke-linecap="butt" stroke-linejoin="miter" style="fill: var(--color2, #fed4a0); stroke: var(--color3, #35373b)" d="M24.436 16c0 4.659-3.777 8.436-8.436 8.436s-8.436-3.777-8.436-8.436c0-4.659 3.777-8.436 8.436-8.436s8.436 3.777 8.436 8.436z"></path>
<path fill="none" stroke="#35373b" stroke-width="0.5818" stroke-miterlimit="4" stroke-linecap="butt" stroke-linejoin="miter" style="stroke: var(--color3, #35373b)" d="M27.345 16c0 6.266-5.080 11.345-11.345 11.345s-11.345-5.080-11.345-11.345c0-6.266 5.080-11.345 11.345-11.345s11.345 5.080 11.345 11.345z"></path>
<path fill="none" stroke="#35373b" stroke-width="0.5818" stroke-miterlimit="4" stroke-linecap="butt" stroke-linejoin="miter" style="stroke: var(--color3, #35373b)" d="M11.927 8.727v14.545"></path>
<path fill="none" stroke="#35373b" stroke-width="0.5818" stroke-miterlimit="4" stroke-linecap="butt" stroke-linejoin="miter" style="stroke: var(--color3, #35373b)" d="M20.364 8.727v14.545"></path>
<path fill="none" stroke="#35373b" stroke-width="0.5818" stroke-miterlimit="4" stroke-linecap="butt" stroke-linejoin="miter" style="stroke: var(--color3, #35373b)" d="M8.727 11.927h14.545"></path>
<path fill="none" stroke="#35373b" stroke-width="0.5818" stroke-miterlimit="4" stroke-linecap="butt" stroke-linejoin="miter" style="stroke: var(--color3, #35373b)" d="M8.727 20.073h14.545"></path>
</symbol>
<symbol id="icon-pot-logo" viewBox="0 0 32 32">
<path fill="#35373b" style="fill: var(--color3, #35373b)" d="M7.26 8.652c4.009-4.778 11.133-5.402 15.912-1.392s5.401 11.133 1.392 15.912c-4.009 4.778-11.133 5.402-15.912 1.392s-5.402-11.133-1.392-15.912z"></path>
<path fill="#f5f5f5" style="fill: var(--color1, #f5f5f5)" d="M10.955 11.735c2.239-2.668 6.216-3.016 8.884-0.777s3.016 6.216 0.777 8.884c-2.239 2.668-6.216 3.016-8.884 0.777s-3.016-6.216-0.777-8.884z"></path>
<path fill="#fed4a0" style="fill: var(--color2, #fed4a0)" d="M10.781 10.193l-1.75-1.363 0.42-0.283 1.54 1.214-0.21 0.141-0.524-1.899 0.375-0.252 1.543 1.212-0.202 0.136-0.534-1.892 0.387-0.261 0.606 2.134-0.435 0.293-1.358-1.061 0.115-0.077 0.461 1.665-0.435 0.293z"></path>
<path fill="#fed4a0" style="fill: var(--color2, #fed4a0)" d="M14.725 8.453c-0.183 0.026-0.349 0.013-0.498-0.038-0.147-0.052-0.268-0.134-0.361-0.247-0.093-0.114-0.151-0.251-0.174-0.41-0.023-0.161-0.007-0.308 0.049-0.442 0.058-0.136 0.146-0.248 0.265-0.336 0.119-0.090 0.26-0.147 0.423-0.17 0.157-0.022 0.303-0.009 0.438 0.041 0.137 0.047 0.251 0.128 0.342 0.243 0.091 0.113 0.149 0.256 0.174 0.429 0.003 0.018 0.005 0.039 0.006 0.063 0.001 0.022 0.002 0.043 0.003 0.063l-1.303 0.186-0.039-0.271 1.058-0.151-0.167 0.106c-0.012-0.083-0.039-0.154-0.082-0.21s-0.096-0.098-0.161-0.123c-0.065-0.027-0.137-0.035-0.216-0.024s-0.148 0.039-0.204 0.084c-0.055 0.042-0.095 0.098-0.119 0.166-0.025 0.066-0.031 0.142-0.019 0.228l0.010 0.072c0.012 0.087 0.042 0.162 0.090 0.224 0.049 0.060 0.111 0.103 0.186 0.129 0.076 0.024 0.162 0.029 0.258 0.015 0.085-0.012 0.158-0.036 0.218-0.071 0.062-0.035 0.116-0.082 0.162-0.142l0.286 0.233c-0.062 0.094-0.145 0.172-0.25 0.233-0.105 0.060-0.23 0.1-0.375 0.12z"></path>
<path fill="#fed4a0" style="fill: var(--color2, #fed4a0)" d="M17.229 6.636l-0.465-0.519 0.499 0.085 0.328 0.496-0.362-0.061z"></path>
<path fill="#fed4a0" style="fill: var(--color2, #fed4a0)" d="M18.419 8.829l0.861-2.062 0.433 0.181-0.861 2.062-0.434-0.181z"></path>
<path fill="#fed4a0" style="fill: var(--color2, #fed4a0)" d="M19.423 9.298l1.157-1.912 0.402 0.243-1.157 1.912-0.402-0.243z"></path>
<path fill="#fed4a0" style="fill: var(--color2, #fed4a0)" d="M21.033 10.515l1.624-1.535 0.323 0.341-1.624 1.535-0.323-0.341z"></path>
<path fill="#fed4a0" style="fill: var(--color2, #fed4a0)" d="M21.759 11.352l1.33-0.926 0.268 0.386-1.33 0.926-0.268-0.386zM23.409 10.491c-0.049-0.071-0.069-0.143-0.059-0.216s0.046-0.131 0.107-0.173 0.128-0.056 0.2-0.040c0.072 0.016 0.133 0.059 0.182 0.13s0.070 0.142 0.061 0.214c-0.007 0.071-0.041 0.128-0.102 0.17-0.064 0.045-0.133 0.060-0.207 0.045-0.071-0.014-0.132-0.057-0.182-0.13z"></path>
<path fill="#fed4a0" style="fill: var(--color2, #fed4a0)" d="M22.147 13.303c-0.052-0.143-0.085-0.289-0.098-0.435-0.014-0.144-0.003-0.274 0.035-0.388l0.381 0.060c-0.029 0.083-0.041 0.18-0.036 0.289 0.004 0.112 0.024 0.216 0.059 0.312 0.057 0.157 0.133 0.257 0.229 0.301 0.096 0.046 0.213 0.044 0.351-0.006l0.229-0.084 0.392-0.111 0.383-0.146 0.328-0.12 0.153 0.419-1.267 0.463c-0.283 0.103-0.518 0.106-0.706 0.008s-0.332-0.285-0.432-0.56zM22.767 13c-0.052-0.141-0.068-0.281-0.050-0.418 0.021-0.136 0.073-0.259 0.157-0.368 0.086-0.109 0.203-0.19 0.35-0.243 0.149-0.054 0.291-0.068 0.425-0.040 0.137 0.029 0.256 0.089 0.358 0.18 0.102 0.093 0.179 0.21 0.231 0.352 0.047 0.128 0.062 0.251 0.045 0.368-0.015 0.117-0.067 0.222-0.157 0.317-0.088 0.094-0.216 0.172-0.386 0.234-0.168 0.061-0.316 0.085-0.446 0.070-0.128-0.015-0.236-0.063-0.324-0.141s-0.156-0.182-0.203-0.311zM23.162 12.955c0.028 0.077 0.069 0.141 0.121 0.19 0.054 0.049 0.116 0.080 0.185 0.093s0.14 0.007 0.214-0.020c0.075-0.028 0.134-0.068 0.177-0.122 0.044-0.055 0.070-0.118 0.078-0.189 0.010-0.072 0.001-0.147-0.027-0.224s-0.069-0.14-0.123-0.189c-0.052-0.049-0.113-0.082-0.183-0.097-0.067-0.014-0.138-0.007-0.214 0.020-0.074 0.027-0.133 0.068-0.177 0.122-0.043 0.056-0.070 0.121-0.080 0.193-0.008 0.071 0.002 0.146 0.030 0.223z"></path>
<path fill="#fed4a0" style="fill: var(--color2, #fed4a0)" d="M24.865 15.931c-0.001 0.129-0.028 0.243-0.081 0.343-0.051 0.102-0.13 0.182-0.237 0.239-0.105 0.057-0.24 0.086-0.404 0.084l-0.927-0.007 0.003-0.47 0.855 0.006c0.13 0.001 0.227-0.027 0.29-0.085 0.063-0.056 0.094-0.136 0.095-0.24 0.001-0.074-0.015-0.142-0.047-0.202-0.030-0.058-0.077-0.105-0.141-0.14-0.064-0.033-0.146-0.049-0.247-0.050l-0.801-0.006 0.003-0.47 2.235 0.016-0.003 0.47-1.063-0.008 0.136-0.104c0.108 0.059 0.191 0.143 0.248 0.252s0.086 0.233 0.085 0.371z"></path>
<path fill="#fed4a0" style="fill: var(--color2, #fed4a0)" d="M22.823 18.127c0.055-0.183 0.143-0.311 0.266-0.386 0.125-0.074 0.279-0.083 0.464-0.028l1.362 0.407-0.135 0.45-1.356-0.405c-0.066-0.020-0.122-0.017-0.168 0.006-0.045 0.024-0.076 0.066-0.094 0.126-0.021 0.071-0.020 0.138 0.003 0.199l-0.354 0.026c-0.019-0.056-0.027-0.119-0.025-0.19 0.004-0.068 0.016-0.137 0.036-0.206zM24.263 17.665l0.346 0.104-0.322 1.076-0.346-0.104 0.322-1.076z"></path>
<path fill="#fed4a0" style="fill: var(--color2, #fed4a0)" d="M21.64 20.335c0.085-0.105 0.181-0.182 0.288-0.232 0.106-0.048 0.219-0.062 0.338-0.040 0.121 0.023 0.246 0.087 0.376 0.191l0.713 0.575-0.295 0.366-0.659-0.531c-0.105-0.085-0.2-0.125-0.285-0.122-0.085 0.006-0.16 0.050-0.226 0.131-0.045 0.056-0.074 0.116-0.086 0.178-0.010 0.064-0.001 0.129 0.029 0.194 0.031 0.067 0.085 0.131 0.162 0.193l0.623 0.503-0.295 0.366-1.261-1.017 0.28-0.347 0.347 0.28-0.152-0.018c-0.053-0.113-0.069-0.229-0.048-0.348 0.022-0.117 0.072-0.223 0.15-0.32z"></path>
<path fill="#fed4a0" style="fill: var(--color2, #fed4a0)" d="M19.611 22.138c0.117-0.071 0.234-0.108 0.353-0.11s0.235 0.034 0.348 0.109c0.113 0.077 0.218 0.196 0.317 0.357 0.099 0.163 0.158 0.311 0.175 0.443s-0.002 0.251-0.058 0.356c-0.056 0.105-0.145 0.194-0.267 0.268-0.13 0.079-0.265 0.12-0.405 0.123-0.14 0.005-0.273-0.027-0.397-0.096-0.127-0.069-0.234-0.175-0.322-0.319-0.089-0.146-0.135-0.29-0.138-0.434-0.005-0.143 0.027-0.275 0.096-0.397 0.067-0.121 0.166-0.221 0.296-0.301zM20.137 21.161l1.148 1.882-0.383 0.234-0.172-0.283-0.243-0.416-0.275-0.393-0.475-0.779 0.401-0.245zM19.881 22.425c-0.067 0.041-0.117 0.092-0.149 0.155-0.034 0.063-0.050 0.133-0.046 0.208 0.003 0.078 0.028 0.157 0.077 0.235 0.049 0.081 0.107 0.139 0.174 0.176 0.065 0.038 0.134 0.056 0.206 0.054 0.070-0 0.139-0.021 0.206-0.062s0.117-0.093 0.152-0.156c0.034-0.063 0.050-0.133 0.046-0.208s-0.030-0.153-0.079-0.234c-0.048-0.079-0.105-0.138-0.172-0.177-0.066-0.038-0.134-0.056-0.206-0.054s-0.141 0.023-0.208 0.063z"></path>
<path fill="#fed4a0" style="fill: var(--color2, #fed4a0)" d="M16.98 22.531c0.084-0.008 0.168-0.004 0.253 0.015s0.155 0.047 0.211 0.088l-0.138 0.35c-0.039-0.028-0.083-0.049-0.13-0.063-0.050-0.013-0.098-0.018-0.144-0.013-0.066 0.007-0.116 0.028-0.151 0.063-0.037 0.034-0.068 0.088-0.093 0.163l-0.064 0.206-0.031 0.054-0.442 1.448-0.45 0.044 0.56-1.783c0.039-0.135 0.089-0.243 0.15-0.323 0.059-0.080 0.127-0.14 0.206-0.178 0.077-0.038 0.164-0.062 0.262-0.071zM16.758 23.1l0.884 1.605-0.483 0.047-0.69-1.294 0.289-0.358z"></path>
<path fill="#fed4a0" style="fill: var(--color2, #fed4a0)" d="M14.283 23.047c0.169 0.036 0.311 0.104 0.428 0.203 0.114 0.099 0.197 0.217 0.247 0.355 0.048 0.14 0.055 0.288 0.021 0.445-0.034 0.159-0.102 0.291-0.203 0.397-0.103 0.107-0.227 0.181-0.371 0.222-0.147 0.042-0.304 0.045-0.473 0.009-0.167-0.036-0.308-0.104-0.425-0.203-0.117-0.097-0.199-0.214-0.248-0.352s-0.055-0.287-0.020-0.448c0.034-0.157 0.101-0.289 0.203-0.397 0.101-0.106 0.225-0.18 0.371-0.222s0.304-0.046 0.47-0.009zM14.202 23.424c-0.077-0.016-0.149-0.014-0.218 0.009s-0.127 0.062-0.177 0.119c-0.050 0.059-0.084 0.134-0.104 0.224-0.020 0.092-0.019 0.174 0.002 0.247s0.059 0.133 0.112 0.181c0.053 0.049 0.118 0.081 0.195 0.098s0.149 0.014 0.218-0.008c0.068-0.022 0.128-0.062 0.18-0.118 0.049-0.057 0.084-0.132 0.104-0.224 0.019-0.090 0.019-0.173-0.002-0.247-0.023-0.073-0.062-0.133-0.115-0.182s-0.118-0.081-0.195-0.098z"></path>
<path fill="#fed4a0" style="fill: var(--color2, #fed4a0)" d="M12.083 22.212c0.115 0.069 0.205 0.154 0.269 0.254 0.062 0.099 0.091 0.209 0.086 0.33-0.006 0.123-0.053 0.256-0.139 0.398l-0.474 0.783-0.402-0.243 0.438-0.724c0.070-0.115 0.097-0.215 0.082-0.299-0.018-0.083-0.071-0.152-0.16-0.206-0.062-0.037-0.125-0.058-0.188-0.061-0.065-0.002-0.127 0.017-0.188 0.055-0.062 0.040-0.118 0.102-0.169 0.186l-0.415 0.685-0.402-0.243 0.839-1.386 0.381 0.231-0.231 0.381-0.003-0.153c0.105-0.068 0.217-0.1 0.339-0.094 0.118 0.006 0.231 0.041 0.337 0.106z"></path>
<path fill="#fed4a0" style="fill: var(--color2, #fed4a0)" d="M10.691 21.224l-1.178 1.113-0.308-0.326 0.333-0.315-0.053 0.137c-0.116 0.044-0.232 0.047-0.348 0.009-0.117-0.036-0.228-0.11-0.332-0.22l0.315-0.298c0.012 0.016 0.024 0.030 0.035 0.041 0.010 0.013 0.021 0.026 0.033 0.039 0.088 0.093 0.187 0.144 0.296 0.151 0.106 0.007 0.216-0.042 0.328-0.149l0.556-0.525 0.323 0.342z"></path>
<path fill="#fed4a0" style="fill: var(--color2, #fed4a0)" d="M9.237 19.323l-2.005 0.987-0.208-0.421 2.005-0.987 0.208 0.421z"></path>
<path fill="#fed4a0" style="fill: var(--color2, #fed4a0)" d="M8.776 18.284l-1.545 0.488-0.142-0.448 1.545-0.488 0.142 0.448zM6.945 18.617c0.026 0.082 0.023 0.157-0.008 0.224s-0.083 0.111-0.154 0.134c-0.071 0.022-0.138 0.015-0.203-0.021s-0.109-0.096-0.135-0.178c-0.026-0.082-0.024-0.157 0.005-0.223 0.028-0.066 0.077-0.11 0.148-0.132 0.075-0.024 0.145-0.017 0.211 0.019 0.064 0.035 0.109 0.094 0.135 0.178z"></path>
<path fill="#fed4a0" style="fill: var(--color2, #fed4a0)" d="M8.46 17.121l-1.643 0.21c-0.181 0.023-0.333-0.012-0.454-0.106-0.123-0.094-0.198-0.24-0.223-0.439-0.009-0.068-0.010-0.133-0.004-0.197 0.006-0.066 0.021-0.122 0.045-0.17l0.353 0.079c-0.015 0.028-0.025 0.059-0.031 0.092s-0.007 0.068-0.002 0.103c0.009 0.068 0.035 0.118 0.080 0.151 0.042 0.031 0.102 0.042 0.18 0.032l0.149-0.019 0.199-0.038 1.291-0.165 0.060 0.466zM7.279 17.524l-0.359 0.046-0.143-1.114 0.359-0.046 0.143 1.114z"></path>
<path fill="#fed4a0" style="fill: var(--color2, #fed4a0)" d="M8.443 14.78c-0.026 0.183-0.084 0.339-0.175 0.468-0.091 0.127-0.203 0.22-0.337 0.278-0.136 0.058-0.283 0.076-0.442 0.054-0.161-0.023-0.298-0.079-0.411-0.17-0.115-0.093-0.198-0.209-0.249-0.348-0.054-0.139-0.069-0.29-0.046-0.453 0.022-0.157 0.075-0.294 0.161-0.409 0.083-0.118 0.193-0.205 0.328-0.261 0.134-0.056 0.287-0.072 0.46-0.048 0.018 0.002 0.039 0.006 0.062 0.012 0.022 0.005 0.042 0.010 0.062 0.015l-0.182 1.303-0.271-0.038 0.148-1.059 0.056 0.19c-0.084-0.012-0.158-0.005-0.225 0.020s-0.121 0.065-0.163 0.12c-0.044 0.055-0.072 0.122-0.083 0.201s-0.003 0.153 0.024 0.219c0.025 0.064 0.068 0.118 0.127 0.161 0.057 0.042 0.128 0.070 0.214 0.082l0.072 0.010c0.088 0.012 0.168 0.004 0.241-0.024 0.071-0.031 0.13-0.078 0.175-0.143 0.044-0.067 0.072-0.148 0.086-0.243 0.012-0.085 0.009-0.162-0.008-0.229-0.017-0.069-0.047-0.134-0.091-0.195l0.303-0.21c0.073 0.085 0.125 0.187 0.155 0.305 0.028 0.117 0.032 0.249 0.012 0.394z"></path>
<path fill="#fed4a0" style="fill: var(--color2, #fed4a0)" d="M8.118 12.962l-1.313-0.425 0.208-0.52 1.243 0.598-0.139 0.347zM8.89 13.069c-0.031 0.078-0.082 0.133-0.153 0.163s-0.14 0.031-0.209 0.004c-0.071-0.028-0.12-0.077-0.146-0.146-0.028-0.070-0.027-0.144 0.004-0.222 0.032-0.080 0.082-0.135 0.15-0.164 0.067-0.032 0.136-0.033 0.206-0.005 0.069 0.028 0.119 0.077 0.149 0.147 0.031 0.069 0.030 0.143-0.002 0.223z"></path>
<path fill="#fed4a0" stroke="#35373b" stroke-width="0.3765" stroke-miterlimit="4" stroke-linecap="butt" stroke-linejoin="miter" style="fill: var(--color2, #fed4a0); stroke: var(--color3, #35373b)" d="M21.271 15.812c0 3.015-2.444 5.459-5.459 5.459s-5.459-2.444-5.459-5.459c0-3.015 2.444-5.459 5.459-5.459s5.459 2.444 5.459 5.459z"></path>
<path fill="none" stroke="#35373b" stroke-width="0.3765" stroke-miterlimit="4" stroke-linecap="butt" stroke-linejoin="miter" style="stroke: var(--color3, #35373b)" d="M13.176 11.106v9.412"></path>
<path fill="none" stroke="#35373b" stroke-width="0.3765" stroke-miterlimit="4" stroke-linecap="butt" stroke-linejoin="miter" style="stroke: var(--color3, #35373b)" d="M18.635 11.106v9.412"></path>
<path fill="none" stroke="#35373b" stroke-width="0.3765" stroke-miterlimit="4" stroke-linecap="butt" stroke-linejoin="miter" style="stroke: var(--color3, #35373b)" d="M11.106 13.176h9.412"></path>
<path fill="none" stroke="#35373b" stroke-width="0.3765" stroke-miterlimit="4" stroke-linecap="butt" stroke-linejoin="miter" style="stroke: var(--color3, #35373b)" d="M11.106 18.447h9.412"></path>
</symbol>
<symbol id="icon-renovations" viewBox="0 0 32 32">
<path fill="#f5f5f5" style="fill: var(--color1, #f5f5f5)" d="M2.909 0h26.182v32h-26.182v-32z"></path>
<path fill="#fed4a0" opacity="0.6" style="fill: var(--color2, #fed4a0)" d="M12.509 26.182c0 0.803-0.651 1.455-1.455 1.455s-1.455-0.651-1.455-1.455c0-0.803 0.651-1.455 1.455-1.455s1.455 0.651 1.455 1.455z"></path>
<path fill="none" stroke="#35373b" stroke-width="0.2909" stroke-miterlimit="4" stroke-linecap="butt" stroke-linejoin="miter" style="stroke: var(--color3, #35373b)" d="M19.050 23.056l-0-0c-0.539-0.556-0.922-1.112-1.268-1.626-0.023-0.035-0.046-0.069-0.069-0.103-0.32-0.476-0.61-0.909-0.974-1.284-0.358-0.369-0.7-0.662-0.952-0.861-0.126-0.1-0.23-0.177-0.301-0.228-0.004-0.003-0.008-0.006-0.011-0.008l-0.205 0.211-1.46-1.506 0.583-0.602c0-0 0-0 0-0 0.013-0.014 0.021-0.033 0.021-0.052s-0.007-0.038-0.021-0.052c-0-0-0-0-0-0l-0.199-0.206 0.101-0.101c-0.020 0.020 0.364-0.488 0.96-0.911 0.6-0.427 1.456-0.801 2.421-0.517l0 0c0.048 0.014 0.098 0.032 0.145 0.049-0.065-0.075-0.141-0.154-0.204-0.218l-0-0c-0.551-0.564-1.11-0.823-1.633-0.903-0.526-0.080-1.029 0.020-1.471 0.193s-0.817 0.418-1.082 0.621c-0.132 0.101-0.237 0.191-0.308 0.256-0.069 0.062-0.106 0.101-0.108 0.103l-0 0-0.105 0.105-0.192-0.199c-0.006-0.006-0.012-0.010-0.020-0.014s-0.015-0.005-0.023-0.005c-0.008 0-0.016 0.002-0.023 0.005s-0.014 0.008-0.020 0.014l-0.001 0.001-2.239 2.309c-0 0-0 0-0 0-0.013 0.014-0.021 0.033-0.021 0.052s0.008 0.038 0.021 0.052l0.012 0.013 0.009 0.016-0.126 0.072c0.126-0.072 0.126-0.072 0.126-0.072l0 0 0 0 0 0.001 0.001 0.002c0.001 0.002 0.002 0.004 0.004 0.007 0.003 0.005 0.006 0.013 0.011 0.022 0.008 0.018 0.018 0.043 0.028 0.073 0.018 0.059 0.036 0.145 0.020 0.241-0.016 0.1-0.068 0.202-0.175 0.283-0.103 0.078-0.248 0.13-0.443 0.153l9.191 4.615zM19.050 23.056c1.599 1.649 3.315 3.020 3.96 3.517 0.056 0.043 0.088 0.071 0.107 0.091-0.002 0.003-0.005 0.006-0.008 0.010-0.024 0.030-0.061 0.069-0.118 0.128l-1.381 1.424c-0.057 0.059-0.094 0.097-0.124 0.121-0.001 0.001-0.002 0.001-0.002 0.002M19.050 23.056l2.435 5.294M14.001 20.466c0.004 0.006 0.008 0.012 0.013 0.019 0.050 0.074 0.124 0.181 0.221 0.311 0.194 0.26 0.477 0.613 0.836 0.982v0c0.364 0.375 0.782 0.674 1.244 1.004 0.033 0.024 0.067 0.048 0.101 0.072 0.499 0.357 1.037 0.752 1.576 1.308 1.599 1.649 2.928 3.418 3.41 4.083M14.001 20.466l7.401 7.779M14.001 20.466l0.203-0.21-1.46-1.506-0.591 0.61c-0.006 0.006-0.012 0.010-0.020 0.014s-0.015 0.005-0.023 0.005c-0.008 0-0.016-0.002-0.023-0.005s-0.014-0.008-0.020-0.014l-0.013-0.014-0.016-0.010-0.076 0.124c0.076-0.124 0.076-0.124 0.076-0.124l-0-0-0-0-0.001-0.001-0.002-0.001c-0.002-0.001-0.004-0.002-0.007-0.004-0.005-0.003-0.013-0.007-0.021-0.011-0.018-0.009-0.042-0.019-0.072-0.029-0.058-0.019-0.144-0.038-0.24-0.022-0.101 0.017-0.2 0.073-0.278 0.182-0.075 0.105-0.125 0.253-0.147 0.453l-0 0c-0.033 0.291-0.092 0.444-0.15 0.518l2.882 0.045zM21.402 28.245c0.038 0.052 0.064 0.085 0.083 0.105M21.402 28.245l0.083 0.105M10.569 20.904l0.001 0.001c0.006 0.006 0.012 0.010 0.020 0.014s0.015 0.005 0.024 0.005c0.008 0 0.016-0.002 0.023-0.005s0.014-0.008 0.020-0.014c0 0 0 0 0 0s0 0 0 0 0-0 0-0l-0.087-0.001zM10.569 20.904l-1.675-1.728c-0-0-0-0-0-0-0.013-0.014-0.021-0.033-0.021-0.052s0.007-0.038 0.021-0.052c0.157-0.161 0.315-0.321 0.473-0.48M10.569 20.904l-1.203-2.313M9.367 18.591c0.071-0.057 0.217-0.116 0.493-0.15l-0.493 0.15zM18.040 15.332c0.002-0 0.003 0 0.003 0s-0.001 0-0.003-0z"></path>
<path fill="none" stroke="#35373b" stroke-width="0.2909" stroke-miterlimit="4" stroke-linecap="butt" stroke-linejoin="miter" style="stroke: var(--color3, #35373b)" d="M17.196 19.462l-0-0c-0.162-0.167-0.328-0.329-0.499-0.487l1.985-1.985-0.019-0.079c-0.092-0.378-0.085-0.773 0.020-1.147s0.305-0.715 0.58-0.99l0-0c0.274-0.275 0.615-0.475 0.99-0.58 0.288-0.081 0.588-0.103 0.883-0.067l-1.83 1.83 0.022 0.081 0.396 1.478 1.558 0.417 1.831-1.831c0.036 0.295 0.013 0.595-0.067 0.883-0.105 0.374-0.304 0.715-0.579 0.99s-0.616 0.474-0.991 0.579c-0.374 0.105-0.77 0.111-1.147 0.019l-0.079-0.019-2.102 2.102c-0.293-0.424-0.594-0.827-0.949-1.193zM14.559 22.169l0 0c0.344 0.355 0.723 0.658 1.121 0.951l-2.363 2.363 0.019 0.079c0.092 0.378 0.085 0.773-0.020 1.147s-0.305 0.715-0.58 0.99l-0 0c-0.21 0.21-0.46 0.377-0.734 0.491s-0.569 0.172-0.866 0.172c-0.297 0-0.592-0.059-0.866-0.172s-0.524-0.281-0.734-0.491l-0-0c-0.884-0.884-0.884-2.318-0-3.201l0-0c0.275-0.275 0.616-0.475 0.99-0.58s0.769-0.111 1.147-0.019l0.079 0.019 2.302-2.302c0.163 0.189 0.331 0.373 0.505 0.552zM11.473 27.636l0.081 0.022 1.141-1.141-0.022-0.081-0.396-1.478-1.559-0.417-1.141 1.14 0.418 1.559 1.478 0.396z"></path>
<path fill="#35373b" style="fill: var(--color3, #35373b)" d="M16.54 3.658l12.225 9.889c0.38 0.307 0.433 0.866 0.12 1.239l-0.555 0.662c-0.309 0.368-0.858 0.417-1.228 0.109l-10.804-9.011-11.112 9.283c-0.369 0.309-0.919 0.26-1.228-0.109l-0.553-0.659c-0.315-0.375-0.259-0.936 0.123-1.242l12.678-10.166 0.13-0.161 0.035 0.028 0.036-0.029 0.134 0.167zM16.368 4.267l-12.478 10.006c-0.127 0.102-0.146 0.289-0.041 0.414l0.553 0.659c0.103 0.123 0.286 0.139 0.409 0.036l11.444-9.561 0.041 0.049 0.041-0.049 11.136 9.288c0.123 0.103 0.306 0.086 0.409-0.036l0.555-0.662c0.105-0.125 0.087-0.311-0.040-0.413l-12.031-9.732z"></path>
<path fill="none" stroke="#35373b" stroke-width="0.5818" stroke-miterlimit="4" stroke-linecap="butt" stroke-linejoin="miter" style="stroke: var(--color3, #35373b)" d="M25.6 11.345v-4.945c0-0.321-0.26-0.582-0.582-0.582h-2.327c-0.321 0-0.582 0.26-0.582 0.582v2.036"></path>
</symbol>
<symbol id="icon-union" viewBox="0 0 32 32">
<path fill="#524034" style="fill: var(--color4, #524034)" d="M5.333 2.667c-2.946 0-5.333 2.388-5.333 5.333v16c0 2.945 2.388 5.333 5.333 5.333h16c2.945 0 5.333-2.388 5.333-5.333v-16c0-2.946 2.388-5.333 5.333-5.333h-4.444c-0.303 0-0.6 0.025-0.889 0.074v-0.074h-21.333z"></path>
</symbol>
<symbol id="icon-menu" viewBox="0 0 106 32">
<path fill="#d9d9d9" style="fill: var(--color5, #d9d9d9)" d="M3.95 0.615h98.462c1.699 0 3.077 1.378 3.077 3.077s-1.378 3.077-3.077 3.077h-98.462c-1.699 0-3.077-1.378-3.077-3.077s1.378-3.077 3.077-3.077z"></path>
<path fill="#d9d9d9" style="fill: var(--color5, #d9d9d9)" d="M3.95 12.923h98.462c1.699 0 3.077 1.378 3.077 3.077s-1.378 3.077-3.077 3.077h-98.462c-1.699 0-3.077-1.378-3.077-3.077s1.378-3.077 3.077-3.077z"></path>
<path fill="#d9d9d9" style="fill: var(--color5, #d9d9d9)" d="M3.95 25.231h98.462c1.699 0 3.077 1.378 3.077 3.077s-1.378 3.077-3.077 3.077h-98.462c-1.699 0-3.077-1.378-3.077-3.077s1.378-3.077 3.077-3.077z"></path>
</symbol>
</defs>
</svg>
